<svg width="600" height="350" viewBox="0 0 600 350" fill="none" xmlns="http://www.w3.org/2000/svg">
<rect width="600" height="350" fill="white"/>
<path opacity="0.06" d="M377.078 125.064C316.47 56.3249 170.26 49.6819 143.139 111.307C122.558 158.072 72.7713 122.748 37.0705 189.114C-2.02692 261.795 59.0485 340 59.0485 340H369.804C431.311 260.933 415.549 168.695 377.078 125.064Z" fill="#9B51E0"/>
<path opacity="0.06" d="M542.078 125.064C481.47 56.3249 335.26 49.6819 308.139 111.307C287.558 158.072 237.771 122.748 202.07 189.114C162.973 261.795 224.048 340 224.048 340H534.804C596.311 260.933 580.549 168.695 542.078 125.064Z" fill="#E07E51"/>
<path d="M264.384 221.762H167.616C165.619 221.762 164 220.195 164 218.262C164 216.329 165.619 214.762 167.616 214.762H264.384C266.381 214.762 268 216.329 268 218.262C268 220.195 266.381 221.762 264.384 221.762Z" fill="#455A64"/>
<path d="M242 322.762H191V324.762H242V322.762Z" fill="#E0E0E0"/>
<path d="M220 221.762H212V323.762H220V221.762Z" fill="#E0E0E0"/>
<path d="M121.762 130.479C120.065 129.401 119.655 126.9 120.577 125.117C121.493 123.328 123.447 122.244 125.426 121.923C128.296 121.462 131.365 122.475 133.389 124.566C134.484 125.694 135.368 127.163 136.854 127.682C138.161 128.138 139.602 127.727 140.967 127.907C142.805 128.144 144.375 129.452 145.316 131.049C146.258 132.646 146.642 134.506 146.86 136.347C147.059 138.033 147.193 139.887 148.359 141.118C149.499 142.317 151.306 142.574 152.721 143.427C155.392 145.037 156.257 149.019 154.496 151.591C153.932 152.412 153.125 153.162 153.061 154.156C153.003 155.061 153.586 155.869 153.862 156.734C154.566 158.966 152.747 161.615 150.415 161.743C149.237 161.814 147.975 161.352 146.924 161.878C145.874 162.404 145.483 163.667 144.817 164.629C143.497 166.521 140.736 167.233 138.673 166.22C137.809 165.796 136.989 165.091 136.028 165.155C135.067 165.219 134.311 166.04 133.37 166.226C132.133 166.463 130.961 165.553 130.224 164.526C129.488 163.5 128.975 162.295 128.034 161.454C126.804 160.358 125.068 160.088 123.511 159.55C120.071 158.363 117.195 155.625 115.831 152.245C114.466 148.865 114.646 144.896 116.305 141.65" fill="#263238"/>
<path d="M139.698 152.668C140.051 152.29 140.557 151.931 141.076 151.764H140.973C141.069 151.732 141.172 151.719 141.268 151.706C141.646 151.617 142.024 151.636 142.344 151.841H142.331C142.92 152.059 143.439 152.489 143.721 153.053C144.214 154.034 144.029 155.285 143.369 156.164C142.792 156.92 141.793 157.421 140.871 157.196C140.019 156.991 139.385 156.215 139.148 155.375C138.885 154.451 139.051 153.38 139.705 152.675L139.698 152.668Z" fill="#F7E08E"/>
<path d="M117.221 168.759L115.523 137.61C115.453 136.154 116.51 134.884 117.951 134.692L132.735 130.498C137.488 129.857 140.826 135.648 141.268 140.432C141.755 145.749 142.139 152.252 141.62 156.241C140.582 164.264 134.016 165.476 134.016 165.476C134.016 165.45 133.965 167.496 134.016 170.395L130.999 180.265L117.221 168.753V168.759Z" fill="#996656"/>
<path d="M139.602 146.525C139.634 147.063 139.205 147.538 138.648 147.589C138.084 147.634 137.604 147.237 137.565 146.698C137.533 146.159 137.962 145.685 138.52 145.633C139.083 145.588 139.57 145.986 139.602 146.525Z" fill="#263238"/>
<path d="M139.955 143.857C139.833 143.991 139.039 143.44 137.937 143.478C136.835 143.498 136.047 144.088 135.919 143.953C135.861 143.895 135.983 143.652 136.323 143.382C136.662 143.119 137.245 142.85 137.93 142.837C138.616 142.824 139.199 143.055 139.538 143.305C139.884 143.555 140.006 143.793 139.942 143.857H139.955Z" fill="#263238"/>
<path d="M129.5 146.993C129.532 147.532 129.103 148.006 128.546 148.057C127.982 148.102 127.502 147.705 127.463 147.166C127.431 146.627 127.861 146.153 128.418 146.101C128.982 146.056 129.468 146.454 129.5 146.993Z" fill="#263238"/>
<path d="M129.142 144.37C129.02 144.504 128.226 143.953 127.124 143.991C126.022 144.011 125.234 144.601 125.106 144.466C125.048 144.408 125.17 144.165 125.516 143.895C125.856 143.632 126.438 143.363 127.124 143.35C127.809 143.337 128.392 143.568 128.732 143.818C129.078 144.068 129.199 144.306 129.142 144.37Z" fill="#263238"/>
<path d="M133.37 152.431C133.363 152.367 134.042 152.232 135.15 152.059C135.432 152.021 135.695 151.957 135.74 151.764C135.797 151.559 135.676 151.258 135.528 150.937C135.246 150.264 134.945 149.558 134.638 148.821C133.395 145.8 132.492 143.318 132.614 143.267C132.735 143.215 133.844 145.627 135.08 148.641C135.381 149.385 135.663 150.097 135.938 150.777C136.054 151.091 136.246 151.45 136.118 151.88C136.047 152.091 135.849 152.252 135.669 152.303C135.49 152.361 135.33 152.373 135.195 152.38C134.081 152.47 133.389 152.495 133.382 152.431H133.37Z" fill="#263238"/>
<path d="M134.017 165.476C134.017 165.476 129.142 165.95 123.729 162.904C123.729 162.904 126.041 168.843 134.004 167.868L134.017 165.476Z" fill="#774E41"/>
<path d="M132.115 156.438C132.238 156.307 133.075 157.158 134.399 157.053C135.723 156.947 136.542 155.964 136.669 156.074C136.735 156.117 136.632 156.44 136.254 156.824C135.89 157.204 135.22 157.621 134.41 157.688C133.6 157.755 132.919 157.442 132.551 157.118C132.169 156.79 132.054 156.486 132.119 156.434L132.115 156.438Z" fill="#263238"/>
<path d="M129.494 139.823C129.392 140.124 128.29 140.015 127.002 140.208C125.708 140.374 124.683 140.785 124.504 140.515C124.427 140.387 124.6 140.105 125.01 139.797C125.42 139.496 126.08 139.201 126.848 139.092C127.624 138.983 128.335 139.092 128.809 139.265C129.289 139.444 129.532 139.669 129.494 139.816V139.823Z" fill="#263238"/>
<path d="M139.461 140.073C139.276 140.329 138.507 140.092 137.597 140.105C136.688 140.086 135.919 140.323 135.733 140.066C135.65 139.945 135.765 139.688 136.098 139.438C136.425 139.194 136.976 138.983 137.604 138.983C138.231 138.983 138.782 139.194 139.103 139.444C139.429 139.694 139.545 139.945 139.461 140.073Z" fill="#263238"/>
<path d="M146.649 138.752C146.277 137.552 145.592 136.411 144.548 135.731C143.971 135.359 143.305 135.128 142.773 134.699C141.62 133.769 141.351 132.146 140.64 130.844C139.724 129.17 137.95 127.99 136.047 127.798C134.465 127.638 132.838 128.112 131.294 127.721C130.154 127.432 129.161 126.695 128.008 126.477C125.759 126.047 123.671 127.663 122.044 129.273C122.044 130.883 123.319 131.96 124.555 132.993C125.792 134.025 127.489 134.474 129.071 134.185C130.301 133.961 131.646 133.339 132.71 133.993C133.824 134.679 133.876 136.366 134.862 137.232C136.278 138.463 138.533 137.309 140.333 137.841C141.723 138.251 142.587 139.585 143.51 140.701C144.432 141.817 145.816 142.882 147.206 142.471C147.116 141.221 147.027 139.957 146.655 138.765L146.649 138.752Z" fill="#263238"/>
<path d="M129.776 131.947C128.77 131.659 126.708 131.004 126.169 130.132C124.997 128.234 122.928 126.932 120.814 127.047C118.7 127.163 116.67 128.837 116.241 131.069C113.685 131.088 111.186 132.698 109.956 135.115C109.803 135.417 109.668 135.731 109.559 136.052C108.765 137.456 108.611 139.213 109.188 140.727C109.534 141.638 110.129 142.651 109.662 143.504C109.188 144.376 107.984 144.402 107.042 144.729C105.408 145.293 104.351 147.166 104.717 148.859C104.845 149.462 105.139 150.071 105.011 150.674C104.883 151.302 104.339 151.751 103.922 152.245C102.891 153.47 102.571 155.259 103.115 156.766C103.66 158.274 105.043 159.447 106.619 159.736C107.337 159.864 108.112 159.838 108.733 160.217C109.444 160.653 109.758 161.512 110.258 162.179C111.218 163.462 113.031 164.026 114.549 163.526C114.857 163.423 115.145 163.269 115.414 163.09C115.895 163.757 116.651 164.206 117.938 164.206L117.643 147.365C117.804 147.717 118.111 148.038 118.662 148.166C121.359 148.776 121.756 143.209 121.154 141.695C122.127 140.83 123.12 139.944 123.863 138.841C124.606 137.738 125.266 134.731 125.106 133.377C126.08 133.435 130.224 132.063 129.782 131.934L129.776 131.947Z" fill="#263238"/>
<path d="M118.38 148.737C118.297 147.025 116.202 146.659 114.722 147.519C113.909 147.987 113.287 148.936 113.364 150.751C113.563 155.599 118.38 154.4 118.386 154.259C118.386 154.175 118.489 150.744 118.386 148.737H118.38Z" fill="#996656"/>
<path d="M115.017 154.297C115.369 153.919 115.875 153.56 116.394 153.393H116.292C116.388 153.361 116.49 153.348 116.586 153.335C116.964 153.246 117.342 153.265 117.663 153.47H117.65C118.239 153.688 118.758 154.118 119.04 154.682C119.533 155.663 119.354 156.914 118.688 157.793C118.111 158.549 117.112 159.05 116.189 158.825C115.337 158.62 114.703 157.844 114.466 157.004C114.204 156.08 114.37 155.009 115.023 154.304L115.017 154.297Z" fill="#F7E08E"/>
<path d="M163.784 300.551L162.676 316.02C162.676 316.02 177.941 322.016 178.018 324.896L148.052 324.152L148.788 299.98L163.784 300.557V300.551Z" fill="#455A64"/>
<path d="M153.637 314.448C153.048 314.59 152.619 315.231 152.734 315.827C152.849 316.424 153.503 316.866 154.092 316.738C154.688 316.61 155.226 315.853 155.04 315.269C154.861 314.692 154.066 314.211 153.522 314.481" fill="#E0E0E0"/>
<path d="M148.051 324.145L148.109 322.221L177.178 323.53C177.178 323.53 178.114 324.152 178.158 325.056L148.045 324.145H148.051Z" fill="#263238"/>
<path d="M162.945 316.122C162.932 316.27 162.195 316.308 161.452 316.757C160.696 317.187 160.299 317.815 160.165 317.751C160.03 317.719 160.28 316.841 161.19 316.315C162.093 315.776 162.983 315.988 162.945 316.122Z" fill="#263238"/>
<path d="M166.071 317.552C166.096 317.7 165.449 317.924 164.924 318.534C164.38 319.124 164.232 319.797 164.085 319.784C163.944 319.803 163.874 318.931 164.54 318.187C165.2 317.437 166.071 317.405 166.071 317.546V317.552Z" fill="#263238"/>
<path d="M167.736 321.42C167.602 321.445 167.422 320.701 167.832 319.906C168.236 319.104 168.941 318.809 168.998 318.938C169.075 319.06 168.614 319.483 168.287 320.137C167.948 320.785 167.884 321.407 167.736 321.42Z" fill="#263238"/>
<path d="M162.81 312.55C162.746 312.685 162.074 312.454 161.235 312.48C160.395 312.492 159.736 312.749 159.665 312.614C159.582 312.505 160.235 311.979 161.222 311.96C162.208 311.934 162.881 312.428 162.804 312.544L162.81 312.55Z" fill="#263238"/>
<path d="M163.464 309.228C163.464 309.292 162.874 309.363 161.952 309.164C161.491 309.068 160.946 308.895 160.383 308.619C160.101 308.478 159.812 308.317 159.531 308.125C159.396 308.029 159.23 307.933 159.089 307.753C158.928 307.593 158.852 307.195 159.05 306.964C159.217 306.74 159.492 306.644 159.71 306.65C159.934 306.65 160.114 306.701 160.274 306.746C160.607 306.842 160.921 306.964 161.202 307.105C161.773 307.388 162.227 307.74 162.567 308.074C163.246 308.747 163.464 309.312 163.412 309.337C163.342 309.382 163.022 308.907 162.323 308.343C161.978 308.061 161.529 307.772 160.998 307.535C160.728 307.42 160.44 307.317 160.139 307.234C159.819 307.137 159.55 307.125 159.46 307.266C159.428 307.317 159.422 307.343 159.486 307.439C159.55 307.529 159.678 307.618 159.812 307.708C160.075 307.894 160.338 308.055 160.594 308.196C161.113 308.478 161.612 308.67 162.042 308.811C162.9 309.087 163.47 309.145 163.464 309.228Z" fill="#263238"/>
<path d="M194.756 269.158L203.269 282.113C203.269 282.113 219.034 277.585 220.834 279.83L196.588 297.473L182.502 277.829L194.762 269.158H194.756Z" fill="#455A64"/>
<path d="M195.134 286.371C194.749 286.84 194.801 287.616 195.255 288.02C195.71 288.424 196.492 288.379 196.889 287.917C197.28 287.455 197.248 286.525 196.754 286.173C196.261 285.82 195.339 285.922 195.07 286.468" fill="#E0E0E0"/>
<path d="M196.588 297.466L195.467 295.901L219.348 279.253C219.348 279.253 220.469 279.176 221.058 279.868L196.594 297.466H196.588Z" fill="#263238"/>
<path d="M203.551 282.036C203.634 282.158 203.071 282.645 202.75 283.453C202.411 284.255 202.475 284.993 202.334 285.025C202.206 285.082 201.873 284.229 202.276 283.261C202.667 282.286 203.5 281.908 203.551 282.042V282.036Z" fill="#263238"/>
<path d="M206.895 281.266C207.004 281.363 206.632 281.94 206.581 282.741C206.51 283.543 206.799 284.165 206.677 284.249C206.574 284.351 205.992 283.703 206.068 282.703C206.139 281.709 206.811 281.151 206.895 281.266Z" fill="#263238"/>
<path d="M210.565 283.325C210.476 283.428 209.88 282.947 209.72 282.062C209.553 281.183 209.937 280.516 210.059 280.58C210.2 280.631 210.085 281.247 210.226 281.965C210.347 282.69 210.674 283.222 210.565 283.319V283.325Z" fill="#263238"/>
<path d="M201.264 279.278C201.29 279.426 200.624 279.65 199.97 280.183C199.31 280.702 198.945 281.305 198.804 281.247C198.67 281.209 198.875 280.394 199.643 279.778C200.412 279.156 201.251 279.144 201.258 279.278H201.264Z" fill="#263238"/>
<path d="M199.772 276.245C199.81 276.296 199.387 276.707 198.529 277.117C198.106 277.322 197.568 277.515 196.953 277.636C196.646 277.701 196.319 277.746 195.973 277.765C195.806 277.771 195.621 277.797 195.396 277.739C195.172 277.707 194.871 277.444 194.884 277.136C194.878 276.854 195.038 276.617 195.217 276.482C195.396 276.347 195.569 276.277 195.723 276.219C196.043 276.091 196.37 276.001 196.678 275.937C197.299 275.815 197.875 275.815 198.349 275.873C199.298 275.995 199.816 276.309 199.791 276.36C199.765 276.437 199.221 276.258 198.324 276.238C197.882 276.226 197.35 276.264 196.78 276.399C196.498 276.469 196.204 276.559 195.915 276.687C195.608 276.803 195.384 276.963 195.396 277.123C195.403 277.188 195.416 277.207 195.525 277.245C195.633 277.277 195.787 277.271 195.947 277.265C196.268 277.252 196.575 277.22 196.863 277.175C197.446 277.085 197.959 276.937 198.382 276.784C199.227 276.476 199.714 276.181 199.759 276.245H199.772Z" fill="#263238"/>
<path d="M118.636 228.037C119.226 228.024 116.554 235.867 137.168 238.253C157.782 240.645 165.584 243.518 169.588 248.354C173.591 253.189 164.405 309.061 164.405 309.061L147.879 308.754C147.879 308.754 148.474 281.055 148.801 277.124C149.128 273.192 151.645 262.822 151.645 262.822L108.137 264.015C107.881 264.021 107.631 264.021 107.375 264.015C97.6575 263.874 89.8873 251.515 90.5215 241.806L91.3927 236.528L118.643 228.024L118.636 228.037Z" fill="#263238"/>
<path d="M118.995 231.788C118.995 231.788 139.071 225.754 149.832 224.586C160.588 223.419 166.872 225.08 168.736 227.036C173.079 231.577 201.949 276.719 201.949 276.719L187.139 287.282C187.139 287.282 161.875 252.824 154.861 243.73L152.446 240.959L118.784 236.906L118.989 231.788H118.995Z" fill="#263238"/>
<path d="M121.589 235.393C121.589 235.393 121.641 235.412 121.737 235.431C121.852 235.457 121.993 235.489 122.179 235.527C122.589 235.604 123.152 235.72 123.876 235.861C125.375 236.143 127.502 236.541 130.128 237.034C135.426 238.003 142.716 239.33 150.768 240.799C151.338 240.902 151.901 241.004 152.427 241.1L152.324 241.017C155.521 248.206 159.941 253.799 163.483 257.384C165.277 259.166 166.833 260.488 167.948 261.341C168.499 261.751 168.934 262.065 169.248 262.296C169.389 262.399 169.498 262.476 169.588 262.54C169.665 262.591 169.709 262.617 169.709 262.617C169.709 262.617 169.677 262.578 169.6 262.521C169.517 262.45 169.408 262.367 169.274 262.258C168.966 262.02 168.544 261.687 168.005 261.264C166.91 260.385 165.379 259.051 163.611 257.255C161.856 255.447 159.902 253.151 157.974 250.412C156.065 247.668 154.131 244.48 152.574 240.914L152.542 240.844L152.471 240.831C151.946 240.735 151.383 240.632 150.812 240.53C142.754 239.093 135.464 237.791 130.16 236.842C127.527 236.387 125.394 236.015 123.895 235.758C123.172 235.636 122.601 235.547 122.192 235.476C122.006 235.45 121.865 235.425 121.75 235.412C121.647 235.399 121.596 235.393 121.596 235.399L121.589 235.393Z" fill="#455A64"/>
<path d="M157 183.071L166.63 166.762L173 169.952L167.307 188.762L157 183.071Z" fill="#996656"/>
<path d="M176.93 168.315C177.933 166.704 179.123 164.95 179.123 164.95L180.094 163.339C180.177 163.432 180.248 163.539 180.319 163.645C180.447 163.845 180.576 164.063 180.788 164.182C181.193 164.406 181.707 164.182 182.055 163.882C182.775 163.245 183.109 162.227 182.897 161.309C182.691 160.429 181.984 159.686 181.103 159.393C180.987 159.187 180.82 158.987 180.595 158.806C179.187 157.7 176.679 158.462 176.679 158.462L176.937 157.85C176.937 157.85 178.428 156.408 181.74 157.526C182.235 157.694 182.781 157.7 183.27 157.501C183.566 157.382 183.836 157.188 183.938 156.87C184.196 156.083 183.688 155.702 181.637 154.978C179.579 154.254 177.348 154.216 176.12 154.997C174.892 155.784 174.461 156.164 174.461 156.164C174.461 156.164 176.467 150.526 176.577 150.164C176.898 149.115 176.692 148.104 175.992 147.829C175.541 147.654 174.841 147.754 174.429 148.959C174.069 150.002 168.97 160.267 168.97 160.267L166.99 164.931L166 169.039L172.166 171.762L173.715 170.819C175.059 170.376 176.197 169.489 176.93 168.315Z" fill="#996656"/>
<path d="M167.724 164.988C168.274 165.354 169.05 165.11 169.562 164.68C170.074 164.251 170.42 163.661 170.901 163.192C172.329 161.794 174.687 161.679 176.045 160.223C176.237 160.018 176.403 159.71 176.25 159.486C176.102 159.274 175.788 159.3 175.539 159.351C173.373 159.761 171.215 160.172 169.05 160.589" fill="#996656"/>
<path d="M169.043 160.576C169.043 160.576 169.287 160.48 169.729 160.371C170.177 160.262 170.824 160.12 171.631 159.947C172.47 159.774 173.418 159.582 174.462 159.37C174.731 159.319 175.001 159.261 175.282 159.21C175.545 159.178 175.878 159.017 176.269 159.248C176.461 159.37 176.531 159.646 176.474 159.838C176.429 160.031 176.326 160.178 176.211 160.313C175.987 160.55 175.744 160.768 175.475 160.948C174.386 161.685 173.2 161.98 172.252 162.468C171.772 162.705 171.349 162.974 171.01 163.295C170.67 163.616 170.408 163.981 170.126 164.289C169.588 164.943 168.883 165.264 168.396 165.238C167.903 165.225 167.698 164.988 167.717 164.988C167.73 164.956 167.948 165.129 168.39 165.091C168.832 165.065 169.427 164.764 169.921 164.116C170.177 163.808 170.433 163.43 170.792 163.071C171.151 162.711 171.599 162.41 172.092 162.16C173.072 161.64 174.251 161.326 175.257 160.64C175.507 160.473 175.731 160.268 175.923 160.069C176.109 159.864 176.173 159.62 176.045 159.55C175.917 159.453 175.615 159.511 175.34 159.563C175.058 159.614 174.789 159.665 174.52 159.71C173.476 159.896 172.521 160.063 171.676 160.21C170.862 160.345 170.209 160.454 169.754 160.518C169.299 160.582 169.043 160.608 169.037 160.582L169.043 160.576Z" fill="#6B4336"/>
<path d="M176.012 158.756C176.061 158.781 176.158 158.252 176.829 157.781C177.154 157.554 177.631 157.391 178.184 157.384C178.737 157.372 179.339 157.498 179.962 157.668C180.584 157.837 181.2 158.007 181.781 158.051C182.362 158.095 182.908 158.032 183.316 157.844C183.738 157.661 183.938 157.328 183.98 157.108C184.021 156.881 183.987 156.762 183.98 156.762C183.952 156.762 183.952 156.888 183.883 157.089C183.814 157.29 183.62 157.554 183.24 157.699C182.866 157.844 182.355 157.888 181.808 157.837C181.255 157.787 180.667 157.611 180.038 157.441C179.408 157.265 178.772 157.139 178.177 157.171C177.582 157.19 177.057 157.384 176.711 157.655C176.365 157.919 176.178 158.215 176.089 158.422C175.999 158.63 175.992 158.756 176.006 158.762L176.012 158.756Z" fill="#6B4336"/>
<path d="M175.995 149.762C175.971 149.755 175.859 150.205 175.688 150.928C175.493 151.736 175.26 152.7 175.001 153.762C174.734 154.824 174.485 155.781 174.281 156.582C174.096 157.306 173.979 157.749 174.003 157.762C174.028 157.775 174.183 157.351 174.403 156.641C174.622 155.931 174.899 154.941 175.177 153.833C175.449 152.726 175.673 151.71 175.815 150.974C175.956 150.231 176.019 149.768 175.995 149.762Z" fill="#6B4336"/>
<path d="M177.006 160.209C177.006 160.209 177.149 160.209 177.394 160.188C177.627 160.174 178.021 160.154 178.311 160.456C178.453 160.6 178.505 160.827 178.453 161.081C178.408 161.328 178.273 161.582 178.143 161.864C178.014 162.138 177.878 162.502 177.975 162.887C178.072 163.258 178.363 163.56 178.712 163.691C179.073 163.828 179.461 163.752 179.758 163.587C180.062 163.416 180.307 163.175 180.462 162.873C180.74 162.296 180.863 161.74 180.94 161.273C181.011 160.806 181.018 160.408 180.966 160.147C180.914 159.879 180.83 159.755 180.824 159.762C180.805 159.769 180.856 159.906 180.869 160.16C180.889 160.415 180.863 160.792 180.766 161.239C180.669 161.685 180.52 162.228 180.256 162.756C179.997 163.237 179.358 163.656 178.783 163.443C178.499 163.34 178.273 163.093 178.195 162.818C178.117 162.537 178.214 162.241 178.337 161.967C178.453 161.692 178.595 161.417 178.641 161.122C178.699 160.833 178.615 160.504 178.421 160.332C178.04 159.982 177.607 160.057 177.375 160.099C177.129 160.154 177 160.202 177 160.222L177.006 160.209Z" fill="#6B4336"/>
<path d="M180.075 163.402C180.075 163.402 179.994 163.511 180 163.744C180.007 163.97 180.112 164.325 180.458 164.564C180.792 164.796 181.336 164.848 181.812 164.59C182.289 164.338 182.666 163.828 182.858 163.24C183.049 162.646 183.037 162.026 182.882 161.516C182.728 160.999 182.437 160.606 182.153 160.334C181.868 160.063 181.584 159.921 181.38 159.844C181.175 159.766 181.058 159.753 181.058 159.766C181.039 159.811 181.516 159.921 182.035 160.457C182.289 160.722 182.542 161.103 182.672 161.574C182.802 162.046 182.808 162.614 182.635 163.156C182.462 163.692 182.122 164.157 181.714 164.383C181.305 164.615 180.841 164.596 180.545 164.409C180.248 164.228 180.124 163.925 180.093 163.724C180.062 163.518 180.093 163.402 180.081 163.395L180.075 163.402Z" fill="#6B4336"/>
<path d="M174 165.368C174 165.368 173.824 165.268 173.473 165.233C173.127 165.198 172.6 165.233 172.097 165.492L172.261 165.587C172.315 165.393 172.358 165.178 172.388 164.953C172.545 163.706 172.079 162.737 172.024 162.762C171.958 162.772 172.309 163.736 172.158 164.938C172.133 165.153 172.091 165.363 172.048 165.552L172 165.762L172.218 165.647C172.661 165.407 173.139 165.348 173.467 165.348C173.8 165.348 173.994 165.393 174 165.368Z" fill="#6B4336"/>
<path d="M178.014 155.762C177.968 155.767 178.027 156.158 178.336 156.462C178.645 156.771 178.995 156.791 179 156.741C179.009 156.685 178.718 156.588 178.454 156.32C178.182 156.056 178.064 155.747 178.014 155.762Z" fill="#6B4336"/>
<path d="M134 170.762C134 170.762 139.387 171.795 142.017 173.647C143.274 174.53 153.382 186.862 153.382 186.862L161.155 175.112L172 181.707C172 181.707 163.964 199.396 162.591 201.725C161.219 204.061 156.915 208.149 152.779 206.291C149.476 204.806 135.565 194.908 135.565 194.908L134 170.768V170.762Z" fill="#9B51E0"/>
<path d="M115.254 168.99L105.831 172.094C103.32 184.658 97.6318 190.243 97.6318 190.243L98.8874 220.456C96.4404 225.972 90.7136 233.507 89.9642 239.497L89.8553 240.35L136.809 227.036L134.497 222.002L139.199 207.482C140.992 203.564 142.658 196.548 141.473 191.128L135.554 172.671L134.157 167.778L130.115 173.505L116.888 165.636L115.254 168.996V168.99Z" fill="#9B51E0"/>
<g style="mix-blend-mode:multiply" opacity="0.6">
<path d="M129.033 222.88C129.02 222.81 124.549 223.336 119.046 224.067C113.537 224.798 109.079 225.446 109.092 225.516C109.105 225.587 113.576 225.061 119.085 224.33C124.594 223.599 129.046 222.951 129.039 222.88H129.033Z" fill="#209766"/>
</g>
<g style="mix-blend-mode:multiply" opacity="0.6">
<path d="M139.015 183.762C139.015 183.762 139.176 184.074 139.402 184.655C139.634 185.236 139.955 186.085 140.318 187.147C140.681 188.208 141.085 189.489 141.412 190.95C141.739 192.411 141.959 194.054 141.995 195.784C142.066 199.256 141.347 202.36 140.586 204.47C140.217 205.532 139.824 206.356 139.551 206.918C139.259 207.474 139.093 207.774 139.069 207.761C139.045 207.749 139.182 207.43 139.438 206.862C139.676 206.288 140.032 205.457 140.371 204.389C141.073 202.278 141.751 199.212 141.68 195.79C141.632 192.361 140.782 189.351 140.104 187.222C139.771 186.197 139.491 185.348 139.277 184.699C139.081 184.105 138.98 183.768 139.003 183.762H139.015Z" fill="#209766"/>
</g>
<g style="mix-blend-mode:multiply" opacity="0.6">
<path d="M155.989 194.762C155.904 194.787 155.395 193.237 154.848 191.306C154.302 189.374 153.932 187.787 154.011 187.762C154.096 187.737 154.605 189.286 155.152 191.218C155.698 193.15 156.068 194.736 155.989 194.762Z" fill="#209766"/>
</g>
<g style="mix-blend-mode:multiply" opacity="0.6">
<path d="M130 174.816C130 174.816 129.399 174.381 128.426 173.554L128.595 173.504C128.318 174.402 127.791 175.571 126.865 176.669L126.784 176.762L126.676 176.705C125.534 176.127 124.243 175.422 122.912 174.616C120.595 173.212 118.588 171.772 117.19 170.667C116.487 170.111 115.933 169.648 115.561 169.313C115.19 168.978 114.987 168.785 115.001 168.764C115.014 168.742 115.244 168.899 115.642 169.199C116.102 169.541 116.669 169.961 117.332 170.453C118.764 171.501 120.777 172.905 123.081 174.295C124.406 175.094 125.683 175.807 126.811 176.405L126.622 176.441C127.534 175.4 128.074 174.288 128.385 173.426L128.439 173.269L128.554 173.376C129.487 174.253 130.02 174.773 129.993 174.809L130 174.816Z" fill="#209766"/>
</g>
<g style="mix-blend-mode:multiply" opacity="0.6">
<path d="M134.996 172.852C135.06 172.897 134.305 174.056 133.27 175.52L133.102 175.762L133.009 175.48C132.963 175.345 132.916 175.199 132.858 175.058C132.527 174.197 132.073 173.477 131.69 172.976L131.841 172.998C131.237 173.381 131.051 173.831 131.004 173.803C130.975 173.803 131.08 173.297 131.713 172.824L131.795 172.762L131.864 172.846C132.294 173.33 132.794 174.068 133.137 174.963C133.195 175.109 133.247 175.261 133.294 175.402L133.032 175.357C134.084 173.904 134.938 172.813 134.996 172.858V172.852Z" fill="#209766"/>
</g>
<path d="M164.975 172.331L149.384 172.209L150.486 180.803C150.486 180.803 151.472 185.042 153.842 185.055L160.6 185.106C160.6 185.106 163.342 183.586 163.919 180.508L164.982 172.331H164.975Z" fill="#E0E0E0"/>
<path opacity="0.4" d="M164.975 172.331C164.975 172.331 164.956 172.427 164.924 172.601C164.899 172.793 164.86 173.049 164.809 173.364C164.713 174.044 164.572 175.012 164.399 176.218C164.226 177.443 164.021 178.911 163.784 180.591C163.451 182.233 162.279 183.933 160.53 185.004L160.588 184.991C158.896 184.972 157.09 184.959 155.187 184.94C154.713 184.933 154.227 184.94 153.753 184.914C153.291 184.908 152.862 184.683 152.503 184.369C151.786 183.74 151.312 182.817 150.96 181.874C150.825 181.509 150.703 181.137 150.614 180.765V180.777C150.223 177.744 149.852 174.845 149.506 172.184L149.384 172.325C153.932 172.338 157.807 172.344 160.575 172.35C161.939 172.35 163.028 172.35 163.803 172.344C164.168 172.344 164.457 172.344 164.668 172.338C164.867 172.338 164.969 172.331 164.975 172.325C164.975 172.325 164.886 172.312 164.694 172.312C164.482 172.312 164.207 172.299 163.854 172.293C163.092 172.28 162.01 172.261 160.658 172.235C157.872 172.197 153.964 172.145 149.384 172.081H149.243L149.262 172.222C149.602 174.884 149.967 177.782 150.351 180.816V180.829C150.447 181.22 150.569 181.592 150.71 181.97C151.081 182.932 151.549 183.881 152.337 184.574C152.721 184.908 153.215 185.17 153.746 185.177C154.246 185.203 154.72 185.19 155.194 185.196C157.096 185.209 158.909 185.215 160.594 185.228H160.626L160.652 185.215C162.471 184.087 163.649 182.349 163.989 180.63C164.226 178.918 164.393 177.41 164.54 176.179C164.681 174.967 164.796 174.005 164.873 173.325C164.905 173.017 164.937 172.767 164.956 172.581C164.975 172.415 164.982 172.331 164.975 172.331Z" fill="#263238"/>
<path d="M150.518 176.647C150.441 176.628 150.364 176.609 150.287 176.59C150.268 176.59 150.14 176.557 150.255 176.583C150.383 176.602 150.217 176.583 150.185 176.583C150.012 176.57 149.845 176.583 149.679 176.583C149.845 176.583 149.704 176.583 149.621 176.596C149.531 176.615 149.442 176.634 149.352 176.66C149.275 176.679 149.205 176.711 149.128 176.731C149.025 176.763 149.16 176.718 149.173 176.711C149.128 176.731 149.076 176.756 149.032 176.775C148.878 176.852 148.737 176.942 148.596 177.038C148.506 177.096 148.622 177.019 148.634 177.013C148.609 177.038 148.577 177.064 148.545 177.09C148.474 177.147 148.41 177.212 148.346 177.282C148.301 177.333 148.199 177.462 148.295 177.333C148.244 177.41 148.186 177.481 148.141 177.564C148.103 177.635 148.064 177.705 148.026 177.776C147.975 177.866 148.032 177.75 148.039 177.731C148.019 177.782 148 177.827 147.981 177.879C147.949 177.968 147.923 178.058 147.904 178.148C147.898 178.186 147.853 178.404 147.872 178.295C147.891 178.186 147.866 178.411 147.859 178.449C147.859 178.546 147.859 178.635 147.859 178.732C147.859 178.783 147.859 178.841 147.866 178.892C147.866 178.911 147.885 179.039 147.866 178.924C147.847 178.815 147.891 179.039 147.898 179.071C147.917 179.148 147.936 179.225 147.962 179.302C147.981 179.366 148.064 179.578 147.994 179.411C148.064 179.572 148.148 179.719 148.244 179.867C148.263 179.899 148.289 179.931 148.314 179.963C148.301 179.95 148.218 179.86 148.295 179.931C148.372 180.001 148.436 180.085 148.513 180.162C148.538 180.187 148.705 180.322 148.628 180.264C148.545 180.207 148.731 180.328 148.756 180.348C148.82 180.386 148.891 180.431 148.961 180.463C148.993 180.482 149.032 180.495 149.064 180.514C148.948 180.457 149.006 180.495 149.089 180.521C149.262 180.585 149.442 180.617 149.615 180.668C149.717 180.694 149.57 180.668 149.557 180.668C149.608 180.668 149.659 180.681 149.711 180.681C149.813 180.688 149.922 180.694 150.024 180.688C150.063 180.688 150.101 180.688 150.14 180.688C150.159 180.688 150.332 180.668 150.21 180.688C150.089 180.7 150.223 180.688 150.242 180.681C150.294 180.668 150.345 180.662 150.396 180.649C150.499 180.623 150.595 180.591 150.697 180.559C150.71 180.559 150.832 180.502 150.729 180.546C150.614 180.598 150.832 180.495 150.832 180.495C151.274 180.277 151.876 180.373 152.113 180.841C152.337 181.271 152.234 181.893 151.767 182.124C149.935 183.048 147.545 182.458 146.508 180.636C145.995 179.745 145.867 178.667 146.091 177.667C146.316 176.673 146.969 175.826 147.821 175.294C148.763 174.704 149.96 174.531 151.024 174.832C151.498 174.967 151.831 175.512 151.671 175.993C151.511 176.48 151.017 176.782 150.511 176.641L150.518 176.647Z" fill="#E0E0E0"/>
<path opacity="0.5" d="M150.518 176.647C150.518 176.647 150.62 176.711 150.838 176.705C151.049 176.705 151.402 176.596 151.632 176.23C151.895 175.89 151.831 175.204 151.286 174.871C151.011 174.71 150.703 174.678 150.377 174.627C150.05 174.589 149.698 174.589 149.333 174.646C148.609 174.749 147.827 175.063 147.18 175.647C146.533 176.218 146.014 177.064 145.899 178.045C145.771 179.007 145.957 180.091 146.565 180.976C147.168 181.868 148.186 182.49 149.307 182.644C149.8 182.714 150.294 182.701 150.768 182.612C151.005 182.567 151.235 182.496 151.459 182.413L151.786 182.265C151.895 182.214 152.017 182.131 152.1 182.034C152.452 181.624 152.427 181.015 152.113 180.617C151.773 180.213 151.184 180.168 150.768 180.386L150.947 180.495C150.947 180.495 150.928 180.386 150.838 180.373C150.761 180.373 150.761 180.393 150.768 180.386H150.755L150.729 180.405L150.678 180.431L150.652 180.444L150.633 180.457L150.614 180.47C150.601 180.399 150.518 180.662 150.665 180.688C150.716 180.694 150.71 180.688 150.716 180.688H150.723H150.742L150.793 180.656H150.806V180.649C150.806 180.649 150.806 180.656 150.844 180.617C150.908 180.341 150.652 180.418 150.729 180.412C150.697 180.418 150.703 180.418 150.697 180.418L150.671 180.431L150.627 180.444L150.531 180.476C150.402 180.514 150.268 180.553 150.14 180.572H150.127C150.127 180.572 150.153 180.553 150.056 180.611C150.056 180.623 150.012 180.63 150.018 180.726C150.05 180.829 150.114 180.822 150.127 180.822C150.165 180.822 150.153 180.822 150.153 180.822H150.178L150.229 180.809H150.236C150.236 180.809 150.261 180.803 150.274 180.797C150.274 180.797 150.274 180.797 150.3 180.784C150.3 180.784 150.37 180.752 150.332 180.63C150.274 180.546 150.242 180.572 150.236 180.566H150.217H150.197H150.172L150.121 180.572C150.063 180.572 149.992 180.579 149.928 180.572C149.8 180.572 149.666 180.572 149.538 180.553L149.512 180.79H149.557L149.589 180.803H149.602H149.615H149.627C149.627 180.803 149.666 180.803 149.704 180.771C149.749 180.732 149.749 180.656 149.736 180.636C149.711 180.591 149.717 180.604 149.711 180.598C149.64 180.546 149.666 180.572 149.653 180.566H149.647L149.544 180.534L149.339 180.476L149.14 180.425C149.102 180.418 149.076 180.405 149.051 180.393H149.032C149.032 180.393 149.012 180.367 149.051 180.399C149.102 180.348 149.083 180.63 148.98 180.598C148.948 180.598 148.942 180.598 148.942 180.598L148.987 180.623L149.096 180.418C149 180.373 148.916 180.322 148.833 180.277C148.788 180.251 148.75 180.226 148.705 180.2L148.673 180.181L148.654 180.168H148.641L148.634 180.155C148.615 180.142 148.583 180.136 148.564 180.142C148.558 180.142 148.538 180.142 148.5 180.175C148.442 180.226 148.481 180.328 148.5 180.328L148.519 180.341L148.558 180.367H148.564V180.373C148.564 180.373 148.596 180.393 148.634 180.386C148.679 180.386 148.718 180.341 148.724 180.316C148.763 180.251 148.679 180.162 148.698 180.187H148.692L148.673 180.168C148.59 180.104 148.532 180.046 148.461 179.969L148.359 179.867L148.333 179.841L148.321 179.828C148.321 179.828 148.321 179.828 148.295 179.809L148.282 179.803C148.282 179.79 148.167 179.783 148.141 179.873C148.141 179.982 148.148 179.931 148.141 179.944L148.154 179.969L148.199 180.027L148.372 179.899C148.25 179.726 148.167 179.54 148.064 179.366L147.872 179.456L147.891 179.488L147.904 179.508C147.904 179.508 147.904 179.508 147.917 179.533L147.93 179.546C147.93 179.546 147.93 179.572 148.013 179.578C148.128 179.552 148.109 179.463 148.109 179.463V179.45V179.437L148.084 179.36C148.064 179.309 148.051 179.277 148.039 179.232C148.013 179.142 147.987 179.059 147.968 178.962L147.955 178.892V178.873V178.866C147.955 178.866 147.955 178.841 147.917 178.802C147.891 178.783 147.84 178.776 147.821 178.789C147.795 178.802 147.789 178.815 147.782 178.821C147.757 178.847 147.763 178.892 147.763 178.898V178.943V178.962V178.969V178.975V178.988C147.693 179.065 148.058 179.033 147.962 178.975V178.962V178.911C147.962 178.885 147.962 178.873 147.955 178.853C147.949 178.764 147.943 178.674 147.949 178.59C147.949 178.501 147.949 178.424 147.962 178.334V178.257C147.962 178.257 147.968 178.212 147.923 178.18C147.872 178.148 147.834 178.18 147.827 178.18C147.814 178.193 147.802 178.199 147.795 178.212C147.776 178.251 147.782 178.244 147.782 178.244V178.257V178.276V178.295V178.308C147.782 178.308 147.782 178.302 147.782 178.34C147.782 178.353 147.789 178.366 147.795 178.379C147.795 178.379 147.802 178.398 147.847 178.417C147.904 178.437 147.962 178.385 147.962 178.366C147.987 178.283 147.981 178.27 147.994 178.218C148.032 178.065 148.071 177.904 148.128 177.763L147.962 177.699L147.949 177.731L147.936 177.75V177.763L147.923 177.776V177.789V177.802C147.923 177.802 147.911 177.872 147.994 177.898C148.058 177.898 148.058 177.879 148.064 177.879C148.077 177.866 148.071 177.866 148.077 177.866C148.103 177.827 148.109 177.814 148.122 177.782C148.148 177.731 148.173 177.686 148.199 177.641C148.25 177.552 148.308 177.475 148.359 177.391L148.224 177.295L148.199 177.327L148.186 177.346C148.186 177.346 148.16 177.385 148.186 177.423C148.276 177.526 148.333 177.41 148.321 177.442V177.43L148.378 177.366C148.41 177.327 148.449 177.295 148.481 177.263C148.551 177.192 148.615 177.128 148.686 177.071L148.583 176.961L148.545 176.987L148.519 177.006C148.519 177.006 148.526 177 148.5 177.026C148.66 177.25 148.564 177.077 148.596 177.128V177.122H148.609L148.698 177.058C148.756 177.019 148.814 176.987 148.865 176.955C148.974 176.885 149.076 176.82 149.185 176.776L149.134 176.66L149.083 176.679H149.07L149.057 176.692L149.044 176.705C149.044 176.705 149.012 176.782 149.051 176.801C149.076 176.814 149.076 176.808 149.083 176.814H149.096H149.102H149.134L149.243 176.769C149.313 176.743 149.384 176.718 149.454 176.705C149.518 176.686 149.589 176.666 149.647 176.66L149.736 176.647H149.749C149.704 176.634 149.832 176.699 149.749 176.551H149.723H149.679V176.647C149.845 176.647 149.992 176.634 150.127 176.634C150.159 176.634 150.191 176.634 150.217 176.634H150.261H150.281H150.294C150.294 176.634 150.326 176.654 150.319 176.59C150.294 176.564 150.306 176.583 150.306 176.577H150.3L150.223 176.564H150.217C150.217 176.564 150.204 176.538 150.185 176.596C150.204 176.628 150.204 176.609 150.21 176.615H150.229L150.261 176.622C150.428 176.654 150.518 176.666 150.518 176.66C150.518 176.654 150.441 176.622 150.268 176.577H150.236L150.217 176.564C150.217 176.564 150.217 176.557 150.223 176.583C150.223 176.634 150.191 176.609 150.204 176.615H150.21L150.287 176.634C150.287 176.634 150.287 176.641 150.287 176.622C150.287 176.609 150.294 176.609 150.287 176.609C150.287 176.583 150.294 176.596 150.294 176.577H150.287H150.268H150.223C150.223 176.577 150.159 176.564 150.127 176.564C149.992 176.564 149.839 176.564 149.672 176.557V176.654H149.717H149.743C149.659 176.506 149.787 176.57 149.743 176.557H149.73L149.634 176.564C149.563 176.577 149.499 176.59 149.429 176.609C149.358 176.622 149.288 176.641 149.211 176.666L149.096 176.699H149.07C149.108 176.872 149.115 176.808 149.121 176.814L149.185 176.795L149.134 176.679C149.025 176.724 148.916 176.782 148.801 176.852C148.743 176.885 148.686 176.923 148.622 176.955L148.526 177.013H148.513V177.026L148.545 177.077C148.545 177.077 148.513 177.026 148.57 177.103C148.57 177.115 148.57 177.109 148.577 177.128C148.609 177.167 148.583 177.141 148.59 177.147L148.609 177.135L148.66 177.096L148.558 176.987C148.487 177.045 148.417 177.109 148.346 177.18C148.308 177.218 148.269 177.25 148.231 177.295L148.18 177.353C148.18 177.353 148.212 177.391 148.224 177.391C148.231 177.391 148.237 177.404 148.237 177.41C148.237 177.423 148.237 177.398 148.256 177.41C148.269 177.41 148.269 177.43 148.276 177.442C148.295 177.455 148.314 177.462 148.308 177.462L148.321 177.449L148.346 177.417L148.212 177.321C148.154 177.404 148.09 177.487 148.039 177.577C148.013 177.622 147.987 177.673 147.962 177.718C147.962 177.744 147.911 177.763 147.943 177.795C147.962 177.808 147.981 177.821 147.994 177.834C148.007 177.834 148.032 177.847 148.051 177.853C148.103 177.879 148.064 177.853 148.077 177.866L148.09 177.84L148.116 177.795L147.949 177.731C147.885 177.885 147.84 178.045 147.795 178.212L147.782 178.276V178.308L147.77 178.321V178.328C147.77 178.328 147.757 178.328 147.827 178.34C147.834 178.34 147.859 178.328 147.866 178.34C147.872 178.347 147.859 178.36 147.866 178.353C147.879 178.347 147.898 178.34 147.917 178.347C147.968 178.366 147.955 178.36 147.955 178.36V178.34V178.328C147.955 178.328 147.917 178.334 147.898 178.328C147.885 178.328 147.866 178.308 147.866 178.308C147.879 178.328 147.834 178.328 147.827 178.308C147.744 178.308 147.776 178.308 147.77 178.308V178.315V178.328V178.36C147.757 178.443 147.757 178.539 147.757 178.629C147.757 178.719 147.757 178.815 147.757 178.905C147.757 178.924 147.757 178.962 147.763 178.982V179.001V179.007C147.744 179.007 147.795 178.994 147.84 178.994C147.814 178.994 147.962 178.975 147.955 178.975V178.95V178.918C147.955 178.918 147.955 178.918 147.955 178.924C147.943 178.93 147.93 178.937 147.917 178.937C147.898 178.943 147.853 178.924 147.859 178.93C147.706 178.962 147.77 178.956 147.757 178.956V178.969L147.776 179.039C147.789 179.129 147.821 179.232 147.847 179.328C147.859 179.373 147.879 179.431 147.891 179.475L147.911 179.54C148.18 179.437 148.084 179.463 148.096 179.443L148.084 179.411L147.891 179.501C147.994 179.687 148.084 179.886 148.218 180.072L148.391 179.944L148.34 179.886C148.34 179.886 148.359 179.873 148.301 179.918C148.269 179.95 148.256 179.937 148.244 179.969C148.237 179.982 148.224 179.995 148.218 180.001C148.218 180.001 148.18 180.053 148.186 180.04L148.199 180.053L148.224 180.078L148.327 180.187C148.385 180.258 148.474 180.335 148.545 180.393L148.558 180.405C148.558 180.405 148.545 180.418 148.57 180.393C148.615 180.354 148.622 180.316 148.634 180.328C148.615 180.316 148.647 180.303 148.66 180.296L148.698 180.232L148.673 180.213C148.673 180.213 148.634 180.251 148.654 180.258C148.654 180.271 148.654 180.322 148.628 180.322C148.609 180.328 148.602 180.284 148.609 180.316C148.609 180.341 148.596 180.373 148.57 180.386C148.538 180.425 148.564 180.399 148.558 180.405L148.57 180.418L148.602 180.437C148.641 180.463 148.686 180.495 148.731 180.521C148.82 180.572 148.916 180.63 149.006 180.675L149.115 180.47L149.064 180.444H149.051V180.437H149.038L149.032 180.431C149.032 180.431 149.032 180.431 148.993 180.431C148.897 180.399 148.871 180.681 148.929 180.63C148.974 180.662 148.955 180.649 148.961 180.656L148.993 180.668C149.032 180.688 149.07 180.7 149.102 180.707L149.313 180.765L149.525 180.822L149.627 180.854C149.627 180.854 149.615 180.906 149.666 180.752C149.672 180.758 149.679 180.611 149.685 180.623H149.659L149.595 180.611L149.57 180.848C149.704 180.867 149.845 180.867 149.986 180.874C150.056 180.874 150.127 180.874 150.204 180.874H150.255L150.281 180.867C150.281 180.861 150.294 180.886 150.281 180.848C150.281 180.79 150.281 180.732 150.274 180.726C150.255 180.694 150.268 180.656 150.255 180.623L150.204 180.63H150.178C150.178 180.636 150.178 180.617 150.178 180.643C150.178 180.675 150.178 180.7 150.191 180.707C150.191 180.707 150.21 180.72 150.21 180.745C150.21 180.765 150.191 180.758 150.191 180.758C150.178 180.739 150.21 180.79 150.204 180.809C150.204 180.822 150.204 180.835 150.204 180.867H150.217C150.364 180.842 150.498 180.809 150.639 180.765L150.742 180.732L150.8 180.713H150.825V180.7L150.806 180.656C150.793 180.63 150.787 180.598 150.787 180.585C150.697 180.405 150.742 180.489 150.729 180.47H150.716L150.671 180.495C150.671 180.495 150.671 180.476 150.691 180.527C150.703 180.559 150.703 180.611 150.723 180.623L150.78 180.72L150.8 180.707L150.844 180.688L150.87 180.675H150.883V180.668C150.883 180.668 150.883 180.681 150.812 180.675C150.78 180.675 150.736 180.643 150.723 180.611C150.716 180.598 150.71 180.585 150.71 180.572C150.697 180.566 150.697 180.553 150.806 180.546L150.889 180.662C151.216 180.495 151.684 180.54 151.921 180.835C152.151 181.124 152.164 181.624 151.908 181.913C151.792 182.054 151.575 182.118 151.37 182.214C151.158 182.291 150.94 182.355 150.723 182.4C150.274 182.49 149.813 182.496 149.352 182.432C148.301 182.284 147.347 181.701 146.79 180.88C146.219 180.059 146.034 179.046 146.149 178.135C146.251 177.212 146.726 176.416 147.334 175.871C147.943 175.313 148.673 175.005 149.365 174.896C150.05 174.794 150.729 174.845 151.21 175.063C151.434 175.198 151.587 175.422 151.639 175.64C151.696 175.865 151.639 176.076 151.543 176.243C151.35 176.583 151.037 176.699 150.838 176.718C150.633 176.737 150.524 176.699 150.524 176.718L150.518 176.647Z" fill="#263238"/>
<path d="M115.53 204C115.606 203.833 128.463 184.927 128.463 184.927L136.098 191.052L125.51 213.491C125.51 213.491 116.644 210.234 115.504 204.231" fill="#996656"/>
<path d="M139.788 172.767C139.788 172.767 134.734 175.859 133.376 177.783C132.018 179.706 128.463 184.92 128.463 184.92L136.098 191.045L137.822 187.883C137.822 187.883 145.771 186.78 146.642 185.658C147.513 184.542 146.943 182.868 146.943 182.868C146.943 182.868 148.289 181.63 148.16 180.636C148.16 180.636 151.543 180.252 151.652 179.226C151.76 178.199 151.363 177.064 150.108 176.981C148.852 176.898 146.002 177.116 146.93 176.526C147.859 175.936 151.254 176.474 151.53 174.999C151.805 173.524 151.056 172.466 149.531 172.71C148.007 172.953 147.475 173.062 147.475 173.062C147.475 173.062 149.736 172.338 149.691 170.311C149.685 169.952 149.313 169.721 148.98 169.862C148.583 170.029 148.064 170.273 147.61 170.555C145.713 171.741 140.89 172.056 139.788 172.761V172.767Z" fill="#996656"/>
<path d="M148.09 173.05C148.09 173.159 145.816 173.12 143.132 173.826C140.441 174.512 138.468 175.647 138.417 175.551C138.398 175.519 138.866 175.185 139.686 174.768C140.506 174.351 141.684 173.858 143.049 173.505C144.413 173.152 145.681 173.011 146.604 172.979C147.526 172.947 148.09 173.011 148.09 173.05Z" fill="#6B4336"/>
<path d="M148.16 180.482C148.16 180.579 147.808 180.656 147.385 180.739C146.956 180.822 146.604 180.874 146.572 180.784C146.54 180.701 146.866 180.495 147.328 180.412C147.782 180.322 148.167 180.393 148.167 180.482H148.16Z" fill="#6B4336"/>
<path d="M146.982 182.881C147.014 182.971 146.828 183.106 146.578 183.189C146.328 183.272 146.098 183.272 146.072 183.182C146.04 183.093 146.226 182.958 146.476 182.875C146.726 182.791 146.956 182.798 146.982 182.881Z" fill="#6B4336"/>
<path d="M109.553 170.856C109.553 170.856 95.0055 173.075 97.6319 190.237C99.4383 202.024 101.981 217.897 109.47 222.791C119.841 229.563 127.527 210.092 127.527 210.092L118.098 198.92L115.549 203.012L112.423 186.44L109.553 170.856Z" fill="#9B51E0"/>
<g style="mix-blend-mode:multiply" opacity="0.6">
<path d="M115.312 203.16C115.222 203.179 114.159 198.029 112.942 191.667C111.724 185.299 110.808 180.13 110.898 180.111C110.988 180.091 112.051 185.241 113.268 191.603C114.485 197.965 115.401 203.14 115.312 203.16Z" fill="#209766"/>
</g>
<g style="mix-blend-mode:multiply" opacity="0.6">
<path d="M98.7144 195.861C98.7144 195.861 98.7336 195.926 98.7593 196.06C98.7849 196.208 98.8105 196.407 98.8489 196.644C98.9258 197.157 99.0411 197.92 99.2077 198.895C99.5472 200.844 100.092 203.66 101.065 207.059C101.546 208.758 102.141 210.605 102.865 212.555C103.608 214.492 104.39 216.589 105.517 218.616C106.094 219.622 106.779 220.597 107.657 221.431C108.534 222.252 109.598 222.906 110.783 223.31C111.968 223.708 113.255 223.874 114.543 223.823C115.837 223.753 117.137 223.47 118.367 222.964C119.021 222.675 119.668 222.354 120.231 221.944C120.795 221.527 121.301 221.04 121.749 220.501C122.659 219.436 123.389 218.256 124.043 217.07C125.343 214.684 126.323 212.26 127.387 210.028L127.406 210.195C123.671 205.744 120.456 201.903 118.015 198.991H118.169C116.567 201.024 115.523 202.807 114.812 204.013C114.473 204.609 114.21 205.077 114.024 205.411C113.941 205.558 113.877 205.68 113.826 205.77C113.781 205.853 113.755 205.892 113.749 205.885C113.749 205.885 113.762 205.84 113.8 205.757C113.845 205.661 113.902 205.533 113.973 205.385C114.133 205.058 114.376 204.577 114.716 203.955C115.408 202.73 116.413 200.928 118.009 198.856L118.085 198.76L118.169 198.856C120.635 201.755 123.876 205.571 127.636 209.996L127.7 210.073L127.656 210.163C126.605 212.382 125.631 214.819 124.325 217.23C123.665 218.43 122.928 219.629 121.999 220.726C121.538 221.271 121.013 221.777 120.423 222.22C119.828 222.656 119.168 222.983 118.495 223.284C117.227 223.81 115.888 224.099 114.556 224.169C113.223 224.221 111.897 224.048 110.674 223.637C109.45 223.214 108.342 222.534 107.433 221.675C106.529 220.815 105.825 219.808 105.242 218.782C104.102 216.711 103.333 214.614 102.603 212.664C101.885 210.702 101.302 208.848 100.835 207.142C99.8867 203.724 99.3806 200.889 99.0795 198.933C98.9322 197.952 98.8361 197.189 98.7785 196.669C98.7528 196.426 98.7336 196.227 98.7208 196.079C98.708 195.945 98.708 195.881 98.7144 195.874V195.861Z" fill="#209766"/>
</g>
<path d="M93.0645 265.445H89.9449C88.3051 265.445 86.915 264.214 86.7228 262.585C86.1079 257.486 84.8844 243.3 84.8716 243.159L87.0944 242.967C87.1072 243.108 88.3243 257.262 88.9392 262.315C89.0033 262.822 89.4325 263.207 89.9449 263.207H93.0645V265.445Z" fill="#E0E0E0"/>
<path d="M93.0645 265.445C93.0645 265.445 93.0709 265.4 93.0774 265.31C93.0774 265.201 93.0838 265.06 93.0902 264.887C93.0966 264.483 93.1094 263.925 93.1222 263.213V263.162H93.0709C92.5649 263.162 91.9884 263.149 91.335 263.143C91.0083 263.143 90.6624 263.143 90.2973 263.136C90.1179 263.136 89.9257 263.149 89.7592 263.111C89.5862 263.072 89.4261 262.989 89.298 262.854C89.1698 262.726 89.0738 262.553 89.0417 262.367C89.0161 262.174 89.0033 261.95 88.9841 261.738C88.9456 261.308 88.9072 260.866 88.8624 260.404C88.7791 259.481 88.6894 258.506 88.5933 257.473C88.209 253.337 87.7414 248.354 87.2353 242.954L87.2225 242.819L87.088 242.832C86.5627 242.877 86.0054 242.928 85.4353 242.973C85.2367 242.992 85.0445 243.005 84.8588 243.024L84.7243 243.037L84.7371 243.172C85.4737 250.714 86.1335 257.512 86.614 262.45C86.7164 263.726 87.5428 264.727 88.4396 265.156C88.888 265.381 89.3556 265.483 89.7784 265.503C90.2076 265.516 90.5919 265.503 90.9378 265.503C91.6104 265.49 92.1421 265.483 92.5265 265.471C92.693 265.471 92.8275 265.464 92.93 265.458C93.0197 265.458 93.0645 265.451 93.0581 265.445C93.0581 265.445 93.0069 265.439 92.9108 265.432C92.8019 265.432 92.661 265.426 92.4944 265.419C92.1101 265.413 91.5848 265.4 90.9122 265.387C90.2396 265.355 89.3684 265.483 88.5037 265.015C87.6581 264.586 86.883 263.636 86.7997 262.418C86.3385 257.48 85.7043 250.682 85.0061 243.14L84.8844 243.287C85.0638 243.274 85.2623 243.255 85.4609 243.236C86.0246 243.185 86.5883 243.14 87.1136 243.095L86.9663 242.973C87.4915 248.373 87.972 253.356 88.3755 257.493C88.478 258.525 88.5741 259.506 88.6638 260.423C88.7086 260.885 88.7535 261.328 88.7983 261.757C88.8239 261.975 88.8367 262.174 88.8688 262.392C88.9072 262.617 89.0225 262.816 89.1763 262.969C89.33 263.123 89.5222 263.22 89.7271 263.264C89.9385 263.303 90.1179 263.277 90.2973 263.284C90.6624 263.284 91.0083 263.284 91.335 263.277C91.9884 263.277 92.5649 263.264 93.0709 263.258L93.0197 263.207C93.0325 263.912 93.0453 264.457 93.0517 264.855C93.0517 265.035 93.0581 265.176 93.0645 265.291C93.0645 265.387 93.0709 265.445 93.0774 265.445H93.0645Z" fill="#263238"/>
<path d="M142.664 267.762H93.3299C91.4905 267.762 90 266.419 90 264.762C90 263.105 91.4905 261.762 93.3299 261.762H142.67C144.509 261.762 146 263.105 146 264.762C146 266.419 144.509 267.762 142.67 267.762H142.664Z" fill="#455A64"/>
<path d="M82.073 244.829L75.0288 191.546C74.7833 189.709 76.1365 188.026 78.0401 187.79C79.9438 187.553 81.6883 188.858 81.9337 190.695L88.9712 243.978C89.2167 245.814 87.8635 247.497 85.9599 247.734C84.0562 247.971 82.3117 246.666 82.0663 244.829H82.073Z" fill="#455A64"/>
<path d="M142.673 265.762L151 324.762H148.022L136 267.86L142.673 265.762Z" fill="#455A64"/>
<path d="M93.3526 265.762L85 324.762H87.9665L100 267.86L93.3526 265.762Z" fill="#455A64"/>
<path d="M143 268.262C143 267.976 131.584 267.762 117.5 267.762C103.416 267.762 92 267.976 92 268.262C92 268.548 103.416 268.762 117.5 268.762C131.584 268.762 143 268.548 143 268.262Z" fill="#263238"/>
<path d="M379.439 68.2125C377.811 68.3151 376.21 67.0388 375.947 65.4291C375.685 63.8194 376.787 62.0942 378.362 61.671C377.408 60.5871 377.241 58.8812 377.972 57.6306C378.695 56.3801 380.265 55.6874 381.674 55.9824C381.809 54.5587 382.725 53.2376 384.012 52.6219C385.3 52.0062 386.901 52.1153 388.093 52.9041C389.733 51.6343 392.269 51.7112 393.832 53.0772C395.229 52.8913 396.696 53.7057 397.285 54.9884C397.868 56.271 397.522 57.9128 396.471 58.8492" fill="#8D3B26"/>
<path d="M408.98 44.2806L407.088 44.2326C388.043 43.7762 371.469 50.4533 368.997 59.5723C366.691 68.0588 364.385 77.4499 364.02 82.0214C363.29 91.4927 382.75 93.4301 382.75 93.4301L379.913 104.759L427.577 105.191L436.038 64.0557C438.809 54.2722 429.319 45.3374 408.963 44.2726L408.98 44.2806Z" fill="#FF95A3"/>
<path d="M382.585 93.4221C382.585 93.4221 395.077 94.0866 408.648 90.4118C408.648 90.4118 401.896 97.0809 382.419 95.7599L382.568 93.4301L382.585 93.4221Z" fill="#C89271"/>
<path d="M373.974 69.4278C373.841 70.1404 374.986 70.7809 376.529 70.8529C378.072 70.933 379.416 70.4126 379.548 69.7C379.681 68.9875 378.537 68.347 376.994 68.2669C375.451 68.1869 374.107 68.7073 373.974 69.4198V69.4278Z" fill="#263238"/>
<path d="M399.507 69.9722C399.374 70.6848 400.535 71.3252 402.061 71.3973C403.604 71.4774 404.948 70.957 405.081 70.2444C405.214 69.5319 404.052 68.8914 402.526 68.8193C400.983 68.7393 399.639 69.2597 399.507 69.9722Z" fill="#263238"/>
<path d="M390.282 75.8167C390.299 75.7367 388.441 75.5365 385.438 75.2723C384.675 75.2163 383.945 75.1282 383.845 74.864C383.696 74.5918 384.061 74.1995 384.476 73.7752C385.289 72.8945 386.151 71.9738 387.047 71.005C390.631 67.058 393.252 63.7995 392.92 63.7275C392.588 63.6634 389.42 66.8098 385.853 70.7569C384.99 71.7336 384.161 72.6623 383.381 73.551C383.049 73.9673 382.502 74.4317 382.833 75.0001C383.016 75.2803 383.563 75.4965 384.044 75.5765C384.526 75.6646 384.957 75.6726 385.339 75.6966C388.391 75.8487 390.282 75.9048 390.299 75.8167H390.282Z" fill="#263238"/>
<path d="M400.286 59.6364C400.651 60.0127 403.273 59.6764 406.458 59.7004C409.643 59.6924 412.298 60.0447 412.629 59.6684C412.779 59.4923 412.248 59.148 411.12 58.8197C410.008 58.4995 408.316 58.2273 406.392 58.2193C404.484 58.2193 402.791 58.4755 401.713 58.7877C400.618 59.1 400.12 59.4442 400.27 59.6284L400.286 59.6364Z" fill="#8D3B26"/>
<path d="M373.194 58.3074C373.792 58.6516 376.313 58.3714 379.316 58.4274C382.319 58.4435 384.824 58.7797 385.438 58.4515C385.704 58.2913 385.339 57.9471 384.277 57.6108C383.215 57.2746 381.423 56.9783 379.366 56.9543C377.309 56.9303 375.5 57.1865 374.422 57.4987C373.327 57.811 372.946 58.1472 373.211 58.3154L373.194 58.3074Z" fill="#8D3B26"/>
<path d="M371.32 55.289C371.32 55.289 377.11 49.4846 383.165 48.2436C390.515 46.7385 393.202 50.6134 400.137 49.8529C407.072 49.0923 414.073 47.6512 420.792 50.3653C428.141 53.3355 424.359 55.209 424.409 59.4202C424.574 76.4892 430.514 81.461 433.168 73.4869C433.467 72.6143 438.577 72.0378 439.721 68.339C441.181 63.5513 442.177 57.7149 440.302 54.2482C438.726 51.326 435.524 49.2524 429.651 46.9146C420.377 43.2238 407.155 42.8315 398.13 43.0477C389.105 43.2718 371.27 47.8433 371.32 55.281V55.289Z" fill="#8D3B26"/>
<path d="M431.941 73.1987C432.223 71.7416 434.943 70.6527 437.946 70.8609C441.579 71.1171 445.561 72.2139 444.931 75.8567C443.836 82.3176 430.63 80.4522 430.63 80.2681C430.63 80.14 431.426 75.8967 431.941 73.1987Z" fill="#FFBD95"/>
<path d="M389.946 85.1928C389.754 85.1486 389.533 86.4334 388.282 87.1619C387.032 87.8905 385.682 87.5131 385.643 87.6924C385.609 87.7683 385.908 87.9946 386.484 88.1069C387.051 88.2224 387.907 88.1802 388.673 87.7316C389.438 87.283 389.852 86.5843 389.986 86.0686C390.126 85.5413 390.035 85.1979 389.946 85.1928Z" fill="#263238"/>
<path d="M340.741 153.964L366.332 146.345L371.63 158.87L344.367 161.987L342.394 153.714" fill="#FFBD95"/>
<path d="M341.619 164.238C339.832 164.962 337.865 165.848 337.865 165.848L336.078 166.54C336.161 166.636 336.257 166.726 336.353 166.809C336.539 166.963 336.738 167.13 336.821 167.361C336.981 167.791 336.68 168.265 336.315 168.56C335.559 169.17 334.47 169.33 333.58 168.971C332.721 168.624 332.081 167.81 331.927 166.893C331.735 166.745 331.556 166.553 331.408 166.296C330.511 164.732 331.677 162.384 331.677 162.384L331.017 162.538C331.017 162.538 329.32 163.776 329.928 167.214C330.018 167.727 329.941 168.272 329.666 168.714C329.499 168.99 329.256 169.221 328.923 169.272C328.084 169.4 327.783 168.836 327.373 166.694C326.963 164.552 327.277 162.346 328.269 161.262C329.256 160.178 329.717 159.819 329.717 159.819C329.717 159.819 323.683 160.871 323.299 160.922C322.184 161.07 321.191 160.698 321.025 159.967C320.916 159.498 321.133 158.825 322.421 158.613C323.536 158.427 334.739 155.086 334.739 155.086L339.781 153.9L344.098 153.598L345.879 160.114L344.681 161.487C344.021 162.737 342.945 163.712 341.638 164.244L341.619 164.238Z" fill="#FFBD95"/>
<path d="M340.267 168.208L340.139 169.753L338.775 168.932L328.199 147.07L329.691 146.345L340.267 168.208Z" fill="#263238"/>
<path opacity="0.4" d="M352.09 162.288C352.109 162.333 351.558 162.339 350.988 162.878C350.712 163.141 350.482 163.552 350.392 164.058C350.296 164.558 350.334 165.129 350.411 165.732C350.488 166.329 350.572 166.919 350.533 167.464C350.488 168.002 350.347 168.49 350.097 168.836C349.854 169.195 349.489 169.324 349.258 169.324C349.028 169.324 348.906 169.272 348.906 169.266C348.906 169.24 349.034 169.266 349.246 169.234C349.457 169.202 349.752 169.067 349.95 168.74C350.155 168.419 350.27 167.957 350.302 167.451C350.328 166.938 350.245 166.373 350.168 165.764C350.085 165.161 350.053 164.558 350.168 164.02C350.27 163.481 350.546 163.026 350.866 162.756C351.18 162.481 351.507 162.365 351.731 162.314C351.955 162.269 352.083 162.282 352.083 162.295L352.09 162.288Z" fill="#6F4439"/>
<path opacity="0.4" d="M343.256 160.973C343.256 160.941 343.711 160.871 344.454 160.755C345.28 160.627 346.26 160.473 347.349 160.306C348.432 160.12 349.412 159.954 350.238 159.813C350.975 159.684 351.436 159.607 351.443 159.639C351.449 159.672 351.007 159.806 350.27 159.979C349.54 160.153 348.522 160.358 347.388 160.544C346.254 160.73 345.223 160.858 344.473 160.922C343.724 160.993 343.256 160.999 343.256 160.967V160.973Z" fill="#6F4439"/>
<path opacity="0.4" d="M333.266 163.423C333.266 163.423 333.24 163.564 333.183 163.795C333.131 164.02 333.054 164.398 333.285 164.732C333.394 164.892 333.599 164.975 333.836 164.962C334.073 164.956 334.323 164.86 334.605 164.777C334.88 164.693 335.232 164.61 335.572 164.764C335.899 164.918 336.129 165.238 336.193 165.604C336.264 165.976 336.136 166.348 335.931 166.617C335.726 166.893 335.463 167.098 335.162 167.201C334.585 167.387 334.06 167.425 333.612 167.432C333.17 167.432 332.805 167.374 332.568 167.29C332.331 167.201 332.228 167.105 332.235 167.092C332.247 167.072 332.363 167.143 332.593 167.201C332.824 167.258 333.176 167.284 333.605 167.258C334.035 167.226 334.56 167.169 335.085 166.989C335.566 166.81 336.052 166.245 335.95 165.642C335.899 165.347 335.706 165.084 335.463 164.975C335.22 164.86 334.925 164.911 334.656 164.988C334.38 165.065 334.105 165.161 333.83 165.161C333.554 165.174 333.266 165.046 333.138 164.828C332.875 164.398 333.01 163.988 333.086 163.763C333.176 163.532 333.247 163.41 333.259 163.417L333.266 163.423Z" fill="#6F4439"/>
<path opacity="0.4" d="M339.121 161.717C339.121 161.717 339.018 161.512 339.037 161.14C339.05 160.775 339.191 160.23 339.601 159.755L339.691 159.947C339.435 159.96 339.153 159.967 338.864 159.947C337.257 159.858 336.11 159.165 336.148 159.12C336.174 159.049 337.334 159.62 338.884 159.704C339.166 159.723 339.435 159.723 339.684 159.716L339.96 159.704L339.774 159.909C339.396 160.326 339.236 160.813 339.185 161.153C339.127 161.499 339.153 161.711 339.121 161.717Z" fill="#6F4439"/>
<path opacity="0.4" d="M349.265 163.539C349.284 163.475 349.752 163.641 350.065 164.129C350.379 164.616 350.328 165.116 350.264 165.11C350.194 165.11 350.136 164.687 349.86 164.263C349.591 163.834 349.233 163.603 349.265 163.539Z" fill="#6F4439"/>
<path d="M409.75 219.008C406.393 219.213 397.156 224.716 394.581 229.525C392.615 233.2 392.166 243.814 392.455 259.796C392.48 261.29 389.553 260.091 390.059 263.31L399.994 275.797L407.899 262.137L441.734 254.582L447.525 222.727C447.525 222.727 413.107 218.803 409.75 219.008Z" fill="#CEE0FF"/>
<path d="M339.505 154.958C339.781 155.561 339.416 156.292 338.91 156.722C338.403 157.158 337.763 157.408 337.231 157.805C335.63 158.992 335.137 161.307 333.484 162.417C333.253 162.571 332.92 162.692 332.722 162.5C332.536 162.32 332.613 162.013 332.702 161.775C333.452 159.704 334.201 157.632 334.951 155.561" fill="#FFBD95"/>
<path opacity="0.4" d="M335.124 155.561C335.124 155.561 334.989 155.785 334.81 156.208C334.63 156.632 334.387 157.254 334.092 158.023C333.791 158.825 333.445 159.736 333.067 160.73C332.971 160.986 332.875 161.249 332.779 161.512C332.709 161.769 332.497 162.07 332.664 162.493C332.753 162.699 333.016 162.814 333.208 162.788C333.407 162.769 333.567 162.699 333.714 162.609C333.983 162.423 334.24 162.224 334.457 161.98C335.354 161.025 335.841 159.896 336.469 159.037C336.776 158.601 337.116 158.222 337.481 157.94C337.852 157.658 338.25 157.453 338.602 157.222C339.332 156.798 339.761 156.144 339.813 155.663C339.877 155.17 339.678 154.939 339.672 154.951C339.633 154.964 339.774 155.202 339.672 155.638C339.576 156.067 339.178 156.612 338.467 156.997C338.121 157.203 337.711 157.395 337.302 157.69C336.892 157.985 336.526 158.383 336.193 158.831C335.527 159.716 335.027 160.832 334.188 161.717C333.983 161.935 333.746 162.128 333.516 162.288C333.285 162.436 333.035 162.468 332.984 162.327C332.907 162.186 333.01 161.897 333.112 161.634C333.208 161.365 333.298 161.102 333.388 160.845C333.734 159.845 334.054 158.921 334.336 158.113C334.598 157.331 334.81 156.702 334.944 156.26C335.079 155.817 335.143 155.574 335.117 155.561H335.124Z" fill="#6F4439"/>
<path d="M368.126 149.539C368.043 149.584 367.537 148.814 366.819 147.948C366.108 147.076 365.455 146.422 365.519 146.351C365.576 146.281 366.345 146.839 367.075 147.737C367.812 148.634 368.203 149.5 368.126 149.539Z" fill="#263238"/>
<path d="M520.837 186.256L506.802 180.061L505.227 174L488.847 181.754L485.414 177.957L483.979 182.235L480.392 183.408L472 198.178L472.026 229.654L472.147 256.673V261.098L487.175 263.317C488.821 263.561 490.487 263.561 492.133 263.317L524.008 258.116L523.425 249.349L520.165 224.62L520.831 186.236L520.837 186.256Z" fill="#CEE0FF"/>
<path d="M404.325 101.491C404.325 101.491 404.049 101.683 403.524 101.965C402.935 102.273 402.179 102.677 401.276 103.158C399.367 104.152 396.728 105.499 393.794 106.974C391.802 107.968 389.931 108.898 388.343 109.687L388.202 109.757L388.15 109.61C387.561 107.942 387.382 106.499 387.132 105.525C386.914 104.537 386.715 103.998 386.747 103.985C386.76 103.985 386.831 104.107 386.927 104.364C387.029 104.614 387.157 104.999 387.292 105.486C387.587 106.455 387.817 107.904 388.413 109.507L388.221 109.43C389.809 108.622 391.667 107.68 393.653 106.673C396.58 105.204 399.239 103.883 401.173 102.947C402.102 102.504 402.871 102.138 403.473 101.85C404.017 101.6 404.325 101.465 404.338 101.491H404.325Z" fill="#263238"/>
<path d="M381.629 103.889C381.668 103.87 382.026 104.454 382.571 105.422C383.115 106.384 383.846 107.724 384.634 109.219C384.678 109.308 384.73 109.398 384.774 109.482L384.473 109.507C384.903 107.975 385.293 106.551 385.626 105.557C385.947 104.556 386.222 103.966 386.261 103.979C386.299 103.998 386.113 104.608 385.844 105.621C385.569 106.641 385.229 108.032 384.787 109.623L384.678 110.014L384.486 109.648C384.441 109.565 384.397 109.475 384.345 109.385C383.557 107.891 382.859 106.532 382.366 105.538C381.873 104.543 381.591 103.921 381.636 103.902L381.629 103.889Z" fill="#263238"/>
<path d="M369.215 118.8C369.279 118.8 369.337 127.83 369.337 138.97C369.337 150.109 369.285 159.146 369.215 159.146C369.144 159.146 369.093 150.116 369.093 138.97C369.093 127.823 369.144 118.8 369.215 118.8Z" fill="#263238"/>
<path opacity="0.4" d="M335.745 166.553C335.745 166.553 335.867 166.489 336.091 166.527C336.309 166.572 336.642 166.733 336.821 167.124C336.994 167.502 336.956 168.066 336.623 168.515C336.296 168.964 335.738 169.266 335.124 169.368C334.509 169.471 333.906 169.362 333.432 169.118C332.952 168.881 332.612 168.515 332.401 168.182C332.183 167.842 332.087 167.534 332.049 167.316C332.01 167.098 332.017 166.976 332.03 166.976C332.074 166.963 332.106 167.47 332.548 168.086C332.766 168.387 333.093 168.708 333.541 168.919C333.983 169.131 334.541 169.221 335.098 169.131C335.655 169.041 336.161 168.766 336.456 168.381C336.751 168.002 336.808 167.521 336.674 167.188C336.546 166.854 336.264 166.675 336.078 166.617C335.879 166.553 335.758 166.572 335.758 166.547L335.745 166.553Z" fill="#6F4439"/>
<path d="M389.375 307.064L389.932 321.802C389.932 321.802 375.16 327.317 375 330.056L403.576 329.998L403.647 307L389.375 307.071V307.064Z" fill="#263238"/>
<path d="M393.691 315.628C394.242 315.776 394.627 316.398 394.498 316.962C394.37 317.52 393.743 317.918 393.185 317.777C392.628 317.636 392.148 316.905 392.333 316.36C392.519 315.821 393.288 315.391 393.794 315.661" fill="#E0E0E0"/>
<path d="M398.502 325.075L398.419 322.754L371.047 323.677C371.047 323.677 369.779 324.235 369.92 325.133L398.496 325.075H398.502Z" fill="#455A64"/>
<path d="M384.39 316.738C384.39 316.879 385.095 316.937 385.78 317.386C386.478 317.815 386.837 318.418 386.965 318.367C387.093 318.341 386.882 317.508 386.043 316.975C385.204 316.443 384.365 316.61 384.39 316.738Z" fill="white"/>
<path d="M381.399 317.989C381.367 318.123 381.969 318.36 382.449 318.951C382.942 319.528 383.064 320.163 383.199 320.156C383.327 320.175 383.423 319.361 382.821 318.636C382.225 317.912 381.399 317.854 381.399 317.982V317.989Z" fill="white"/>
<path d="M379.701 321.58C379.829 321.612 380.021 320.913 379.663 320.15C379.31 319.38 378.651 319.085 378.593 319.201C378.516 319.316 378.939 319.727 379.227 320.355C379.528 320.977 379.567 321.567 379.708 321.58H379.701Z" fill="white"/>
<path d="M384.64 313.365C384.698 313.493 385.338 313.301 386.126 313.352C386.914 313.39 387.529 313.653 387.606 313.531C387.689 313.429 387.087 312.916 386.158 312.864C385.229 312.807 384.576 313.256 384.646 313.365H384.64Z" fill="white"/>
<path d="M419.282 300.141L420.832 317.918L418.008 332.329C417.803 333.367 418.52 334.362 419.571 334.496C420.16 334.573 420.743 334.362 421.14 333.925C423.689 331.142 433.003 320.868 432.818 319.579C432.6 318.078 432.427 300.724 432.427 300.724L419.282 300.153V300.141Z" fill="#263238"/>
<path d="M428.006 332.123L441.177 316L441.228 316.757C441.273 317.411 441.081 318.052 440.69 318.578C439.646 319.976 436.68 323.786 429.627 331.552C429.217 332.001 428.609 332.219 428 332.129L428.006 332.123Z" fill="#455A64"/>
<path d="M428.724 312.864C428.302 313.204 428.199 313.884 428.513 314.327C428.833 314.769 429.525 314.878 429.954 314.545C430.383 314.218 430.531 313.397 430.166 312.999C429.801 312.595 428.981 312.512 428.635 312.935" fill="white"/>
<path d="M423.132 326.454C423.036 326.512 422.575 325.601 421.486 325.171C420.41 324.703 419.442 325.018 419.41 324.908C419.391 324.864 419.609 324.716 420.019 324.626C420.429 324.537 421.031 324.556 421.633 324.806C422.229 325.056 422.671 325.473 422.902 325.819C423.132 326.172 423.177 326.435 423.132 326.448V326.454Z" fill="white"/>
<path d="M422.018 328.917C421.941 329 421.332 328.455 420.39 328.25C419.455 328.025 418.674 328.25 418.642 328.134C418.584 328.044 419.417 327.615 420.48 327.865C421.544 328.102 422.107 328.859 422.018 328.91V328.917Z" fill="white"/>
<path d="M425.297 323.247C425.22 323.337 424.292 322.497 422.857 322.055C421.435 321.586 420.192 321.727 420.179 321.606C420.147 321.509 421.447 321.182 422.978 321.676C424.509 322.157 425.381 323.19 425.297 323.241V323.247Z" fill="white"/>
<path d="M425.278 317.803C425.24 317.912 424.228 317.565 422.946 317.597C421.665 317.617 420.672 318.008 420.628 317.899C420.576 317.815 421.563 317.232 422.94 317.206C424.317 317.168 425.329 317.713 425.278 317.803Z" fill="white"/>
<path d="M424.951 312.576C424.9 312.685 423.875 312.153 422.53 312.3C421.178 312.416 420.275 313.14 420.211 313.044C420.179 313.006 420.358 312.775 420.756 312.512C421.146 312.249 421.768 311.986 422.492 311.915C423.215 311.845 423.875 311.979 424.311 312.165C424.746 312.345 424.971 312.544 424.951 312.582V312.576Z" fill="white"/>
<path d="M422.498 311.306C422.498 311.306 422.421 311.069 422.428 310.633C422.44 310.196 422.524 309.555 422.85 308.837C423.023 308.491 423.196 308.054 423.677 307.792C423.914 307.657 424.285 307.683 424.509 307.901C424.734 308.119 424.817 308.407 424.842 308.689C424.894 309.818 423.997 310.979 422.741 311.223C421.473 311.447 420.275 310.793 419.705 309.844C419.577 309.6 419.481 309.292 419.603 308.984C419.718 308.67 420.07 308.529 420.333 308.555C420.865 308.6 421.217 308.882 421.544 309.087C422.19 309.542 422.6 310.036 422.844 310.395C423.087 310.754 423.177 310.979 423.158 310.992C423.1 311.043 422.652 310.145 421.39 309.318C421.069 309.132 420.704 308.888 420.32 308.875C420.134 308.869 419.981 308.952 419.923 309.106C419.865 309.254 419.916 309.478 420.025 309.671C420.506 310.44 421.601 311.037 422.671 310.831C423.734 310.639 424.522 309.619 424.49 308.709C424.477 308.491 424.407 308.273 424.279 308.151C424.157 308.029 423.978 308.003 423.818 308.087C423.478 308.247 423.273 308.638 423.1 308.959C422.434 310.312 422.575 311.319 422.498 311.306Z" fill="white"/>
<path d="M377.554 174.951C377.554 174.951 375.389 183.352 376.17 193.581C376.471 197.538 389.821 307.082 389.821 307.082H407.84L402.773 204.131L404.246 204.451C404.246 204.451 414.086 248.363 414.886 255.469C415.61 261.856 423.906 308.282 423.906 308.282L440.381 308.474L435.122 247.067L428.998 188.149L426.692 171L377.547 174.957L377.554 174.951Z" fill="#303030"/>
<path d="M407.252 102.055L396.856 125.489L400.36 125.553C400.36 125.553 400.392 125.54 400.392 125.521C400.61 124.54 409.725 103.1 409.725 103.1L407.252 102.055Z" fill="#263238"/>
<path d="M381.251 103.453L375.031 125.181L371.707 125.111L378.029 104.505C378.029 104.505 379.772 103.44 381.245 103.453H381.251Z" fill="#263238"/>
<path d="M312.202 163C312.202 163 312.214 163.058 312.227 163.173C312.234 163.308 312.246 163.475 312.259 163.686C312.278 164.161 312.311 164.821 312.349 165.661C312.394 167.374 312.496 169.869 312.195 172.941C312.041 174.473 311.772 176.147 311.26 177.892C310.754 179.636 309.979 181.438 308.845 183.144C307.724 184.85 306.225 186.466 304.329 187.652C303.381 188.242 302.343 188.73 301.222 189.038C300.101 189.326 298.929 189.474 297.744 189.435C296.559 189.371 295.399 189.153 294.298 188.813C293.209 188.441 292.164 187.973 291.21 187.409C289.307 186.254 287.674 184.799 286.438 183.17C283.939 179.886 282.927 176.224 282.428 173.203C281.947 170.157 281.973 167.65 282.031 165.937C282.063 165.078 282.107 164.411 282.146 163.962C282.165 163.75 282.184 163.584 282.197 163.449C282.21 163.333 282.216 163.276 282.223 163.276C282.223 163.276 282.229 163.333 282.223 163.449C282.223 163.584 282.216 163.75 282.21 163.962C282.191 164.411 282.171 165.078 282.159 165.937C282.146 167.65 282.159 170.144 282.665 173.159C282.921 174.666 283.318 176.301 283.946 177.981C284.567 179.662 285.458 181.38 286.681 182.977C287.905 184.574 289.506 185.998 291.377 187.127C292.318 187.685 293.337 188.133 294.4 188.499C295.476 188.826 296.604 189.044 297.757 189.102C298.91 189.14 300.05 188.993 301.132 188.717C302.215 188.422 303.234 187.947 304.156 187.377C306.007 186.222 307.481 184.645 308.589 182.977C310.844 179.61 311.625 175.935 311.958 172.921C312.291 169.875 312.227 167.387 312.221 165.674C312.208 164.834 312.202 164.174 312.195 163.699C312.195 163.487 312.195 163.321 312.195 163.186C312.195 163.071 312.195 163.013 312.208 163.013L312.202 163Z" fill="#263238"/>
<path d="M402.096 182.182C402.096 182.272 395.773 182.528 387.965 182.753C380.156 182.977 373.827 183.08 373.827 182.99C373.827 182.9 380.15 182.644 387.958 182.419C395.76 182.195 402.096 182.092 402.096 182.182Z" fill="#263238"/>
<path d="M366.3 164.533H352.4V166.508H366.3V164.533Z" fill="#E0E0E0"/>
<path d="M473.75 114C473.75 114 482.257 117.277 483.077 124.928C483.308 127.07 486.261 156.642 486.767 160.605C487.273 164.568 487.779 171.988 484.57 174.406C481.36 176.824 472.328 178.639 472.328 178.639L465 163.157L470.368 159.008L468.036 133.926" fill="#CEE0FF"/>
<path d="M363.815 167.201C363.815 167.201 362.143 165.104 365.263 164.302C368.382 163.5 375.204 162.314 379.041 162.634C382.885 162.955 383.999 166.162 383.999 166.162L374.57 167.201C374.57 167.201 372.155 166.322 370.637 166.322C369.119 166.322 363.808 167.201 363.808 167.201H363.815Z" fill="#FFBD95"/>
<path d="M354.712 168.156C354.712 168.156 354.296 166.014 357.255 166.104C360.215 166.194 371.047 166.508 371.047 166.508L384.826 164.533L385.178 171.927C385.178 171.927 371.957 173.505 371.431 173.332C371.015 173.191 365.122 172.607 362.796 172.376C362.188 172.318 361.599 172.094 361.099 171.741L356.647 168.547L354.712 168.163V168.156Z" fill="#FFBD95"/>
<path d="M371.899 170.657C371.899 170.657 371.784 170.869 371.419 171.061C371.06 171.241 370.471 171.453 369.721 171.305C369.625 171.286 369.529 171.247 369.433 171.196C369.343 171.158 369.279 171.145 369.196 171.113C369.01 171.068 368.818 171.017 368.613 170.978C368.203 170.895 367.767 170.805 367.312 170.709C366.384 170.529 365.378 170.33 364.321 170.132C362.246 169.721 360.362 169.356 358.883 169.061C357.492 168.772 356.634 168.58 356.647 168.535C356.653 168.49 357.524 168.605 358.927 168.83C360.33 169.054 362.258 169.394 364.385 169.805C365.448 170.01 366.461 170.215 367.377 170.414C367.838 170.516 368.273 170.613 368.677 170.709C368.882 170.754 369.08 170.818 369.266 170.863C369.362 170.895 369.484 170.94 369.561 170.978C369.625 171.017 369.702 171.049 369.779 171.068C370.426 171.222 371.015 171.068 371.361 170.933C371.72 170.792 371.873 170.625 371.899 170.651V170.657Z" fill="#6F4439"/>
<path d="M378.811 165.065L410.013 157.126C410.013 157.126 414.465 165.857 417.053 171.991C415.586 172.113 381.456 171.991 381.456 171.991L378.811 165.065Z" fill="#FFBD95"/>
<path d="M376.114 166.707C376.095 166.765 375.422 166.47 374.269 166.361C373.116 166.232 371.515 166.386 369.753 166.643C367.985 166.899 366.326 166.983 365.154 166.745C364.571 166.636 364.11 166.482 363.808 166.341C363.507 166.207 363.354 166.104 363.36 166.085C363.386 166.027 364.039 166.361 365.186 166.514C366.332 166.688 367.934 166.572 369.702 166.316C371.463 166.059 373.116 165.937 374.295 166.13C374.884 166.219 375.345 166.348 375.653 166.476C375.96 166.598 376.12 166.694 376.114 166.713V166.707Z" fill="#6F4439"/>
<path d="M416.79 110.803C416.829 110.841 416.297 111.399 415.567 112.387C414.83 113.374 413.933 114.824 413.235 116.568C412.55 118.313 412.21 119.986 412.069 121.211C411.929 122.436 411.935 123.2 411.877 123.206C411.852 123.206 411.832 123.014 411.813 122.667C411.788 122.321 411.794 121.814 411.832 121.192C411.909 119.948 412.223 118.229 412.921 116.446C413.626 114.67 414.58 113.208 415.375 112.246C415.772 111.765 416.111 111.393 416.368 111.155C416.624 110.918 416.765 110.79 416.784 110.809L416.79 110.803Z" fill="#263238"/>
<path opacity="0.4" d="M427.69 164.439C427.638 164.463 427.285 163.589 426.548 162.285C425.812 160.98 424.629 159.269 423.034 157.667C421.434 156.071 419.741 154.912 418.465 154.202C417.184 153.486 416.337 153.158 416.355 153.104C416.361 153.086 416.581 153.152 416.964 153.292C417.352 153.425 417.903 153.668 418.558 154.002C419.219 154.336 419.979 154.791 420.785 155.361C421.585 155.937 422.426 156.629 423.237 157.436C424.043 158.249 424.745 159.099 425.331 159.906C425.91 160.725 426.38 161.496 426.728 162.169C427.082 162.843 427.337 163.407 427.482 163.808C427.632 164.208 427.708 164.427 427.69 164.439Z" fill="#263238"/>
<path opacity="0.4" d="M412.755 127.278C412.755 127.278 412.78 127.432 412.819 127.727C412.851 128.042 412.902 128.478 412.96 129.042C413.075 130.216 413.248 131.915 413.466 134.083C413.889 138.457 414.491 144.722 415.221 152.348V152.418L415.17 152.463C413.466 153.784 411.679 155.176 409.808 156.619L409.853 156.446C412.089 161.153 414.574 166.38 417.2 171.921L417.021 171.831C419.289 171.35 421.614 170.76 423.939 170.01C425.099 169.625 426.252 169.202 427.373 168.676C428.475 168.137 429.608 167.534 430.243 166.463C430.813 165.559 431.146 164.514 431.351 163.462C431.556 162.404 431.652 161.333 431.69 160.268C431.754 158.139 431.594 156.029 431.338 153.977C430.915 149.847 430.505 145.864 430.114 142.067C429.346 134.474 428.648 127.644 428.065 121.898C427.904 120.467 427.815 119.082 427.623 117.812C427.565 117.498 427.52 117.184 427.456 116.876C427.366 116.575 427.277 116.28 427.187 115.991C427.11 115.696 426.988 115.427 426.867 115.157C426.745 114.894 426.643 114.619 426.502 114.369C425.413 112.368 423.984 110.95 422.741 109.95C421.479 108.949 420.39 108.327 419.647 107.93C419.276 107.731 418.981 107.59 418.789 107.5C418.59 107.41 418.494 107.359 418.494 107.359C418.494 107.359 418.603 107.391 418.802 107.474C419 107.558 419.302 107.686 419.679 107.878C420.435 108.263 421.544 108.872 422.825 109.86C424.093 110.854 425.547 112.265 426.675 114.292C426.815 114.542 426.918 114.817 427.052 115.087C427.174 115.356 427.309 115.632 427.386 115.933C427.475 116.228 427.571 116.53 427.667 116.831C427.738 117.139 427.783 117.46 427.84 117.787C428.045 119.082 428.141 120.448 428.308 121.878C428.91 127.625 429.628 134.455 430.428 142.042C430.825 145.838 431.235 149.821 431.671 153.951C431.934 156.016 432.094 158.139 432.03 160.294C431.991 161.371 431.895 162.461 431.684 163.539C431.479 164.616 431.133 165.694 430.531 166.656C430.351 166.925 430.146 167.188 429.929 167.425C429.679 167.637 429.461 167.893 429.179 168.054C428.917 168.233 428.647 168.413 428.366 168.554C428.09 168.714 427.808 168.855 427.52 168.984C426.38 169.522 425.214 169.946 424.048 170.33C421.71 171.081 419.385 171.671 417.092 172.158L416.97 172.184L416.912 172.068C414.292 166.527 411.826 161.294 409.597 156.58L409.546 156.478L409.635 156.407C411.506 154.964 413.299 153.579 415.01 152.264L414.958 152.38C414.273 144.748 413.709 138.482 413.319 134.102C413.133 131.934 412.985 130.228 412.883 129.055C412.838 128.484 412.806 128.048 412.78 127.734C412.761 127.432 412.761 127.278 412.761 127.278H412.755Z" fill="#263238"/>
<path d="M111 15C111 10.5817 114.582 7 119 7H342C346.418 7 350 10.5817 350 15V100.133C350 104.551 346.418 108.133 342 108.133H133.775L111 122V92.0463V15Z" fill="white"/>
<path d="M110.5 122V122.89L111.26 122.427L133.915 108.633H342C346.694 108.633 350.5 104.827 350.5 100.133V15C350.5 10.3056 346.694 6.5 342 6.5H119C114.306 6.5 110.5 10.3056 110.5 15V92.0463V122Z" stroke="black" stroke-opacity="0.15"/>
<path d="M138.664 25L136.324 13.228H138.466L139.492 19.168C139.588 19.792 139.684 20.422 139.78 21.058C139.888 21.682 139.984 22.306 140.068 22.93H140.14C140.272 22.306 140.398 21.682 140.518 21.058C140.65 20.422 140.782 19.792 140.914 19.168L142.354 13.228H144.172L145.612 19.168C145.744 19.78 145.876 20.404 146.008 21.04C146.14 21.664 146.272 22.294 146.404 22.93H146.476C146.572 22.294 146.668 21.664 146.764 21.04C146.86 20.416 146.95 19.792 147.034 19.168L148.06 13.228H150.058L147.808 25H145.216L143.758 18.808C143.662 18.352 143.566 17.896 143.47 17.44C143.386 16.984 143.308 16.534 143.236 16.09H143.164C143.08 16.534 142.99 16.984 142.894 17.44C142.81 17.896 142.72 18.352 142.624 18.808L141.202 25H138.664ZM151.71 25V12.292H153.78V15.568L153.708 17.278C154.08 16.93 154.494 16.624 154.95 16.36C155.406 16.084 155.934 15.946 156.534 15.946C157.482 15.946 158.172 16.252 158.604 16.864C159.036 17.476 159.252 18.34 159.252 19.456V25H157.182V19.726C157.182 18.994 157.074 18.478 156.858 18.178C156.642 17.878 156.288 17.728 155.796 17.728C155.412 17.728 155.07 17.824 154.77 18.016C154.482 18.196 154.152 18.466 153.78 18.826V25H151.71ZM163.89 25.216C163.122 25.216 162.492 24.976 162 24.496C161.52 24.016 161.28 23.392 161.28 22.624C161.28 21.676 161.694 20.944 162.522 20.428C163.35 19.9 164.67 19.54 166.482 19.348C166.47 18.88 166.344 18.478 166.104 18.142C165.876 17.794 165.462 17.62 164.862 17.62C164.43 17.62 164.004 17.704 163.584 17.872C163.176 18.04 162.774 18.244 162.378 18.484L161.622 17.098C162.114 16.786 162.666 16.516 163.278 16.288C163.902 16.06 164.562 15.946 165.258 15.946C166.362 15.946 167.184 16.276 167.724 16.936C168.276 17.584 168.552 18.526 168.552 19.762V25H166.842L166.698 24.028H166.626C166.23 24.364 165.804 24.646 165.348 24.874C164.904 25.102 164.418 25.216 163.89 25.216ZM164.556 23.596C164.916 23.596 165.24 23.512 165.528 23.344C165.828 23.164 166.146 22.924 166.482 22.624V20.644C165.282 20.8 164.448 21.034 163.98 21.346C163.512 21.646 163.278 22.018 163.278 22.462C163.278 22.858 163.398 23.146 163.638 23.326C163.878 23.506 164.184 23.596 164.556 23.596ZM173.862 25.216C172.842 25.216 172.116 24.922 171.684 24.334C171.264 23.734 171.054 22.96 171.054 22.012V17.8H169.794V16.252L171.162 16.162L171.414 13.75H173.142V16.162H175.392V17.8H173.142V22.012C173.142 23.044 173.556 23.56 174.384 23.56C174.54 23.56 174.702 23.542 174.87 23.506C175.038 23.458 175.182 23.41 175.302 23.362L175.662 24.892C175.422 24.976 175.146 25.048 174.834 25.108C174.534 25.18 174.21 25.216 173.862 25.216ZM184.545 25.216C183.741 25.216 183.015 25.036 182.367 24.676C181.731 24.304 181.221 23.776 180.837 23.092C180.465 22.396 180.279 21.562 180.279 20.59C180.279 19.606 180.483 18.772 180.891 18.088C181.299 17.392 181.839 16.864 182.511 16.504C183.195 16.132 183.927 15.946 184.707 15.946C185.271 15.946 185.763 16.042 186.183 16.234C186.603 16.426 186.975 16.66 187.299 16.936L186.291 18.286C186.063 18.082 185.829 17.926 185.589 17.818C185.349 17.698 185.091 17.638 184.815 17.638C184.107 17.638 183.525 17.908 183.069 18.448C182.625 18.988 182.403 19.702 182.403 20.59C182.403 21.466 182.619 22.174 183.051 22.714C183.495 23.254 184.065 23.524 184.761 23.524C185.109 23.524 185.433 23.452 185.733 23.308C186.045 23.152 186.327 22.972 186.579 22.768L187.425 24.136C187.017 24.496 186.561 24.766 186.057 24.946C185.553 25.126 185.049 25.216 184.545 25.216ZM191.136 25.216C190.368 25.216 189.738 24.976 189.246 24.496C188.766 24.016 188.526 23.392 188.526 22.624C188.526 21.676 188.94 20.944 189.768 20.428C190.596 19.9 191.916 19.54 193.728 19.348C193.716 18.88 193.59 18.478 193.35 18.142C193.122 17.794 192.708 17.62 192.108 17.62C191.676 17.62 191.25 17.704 190.83 17.872C190.422 18.04 190.02 18.244 189.624 18.484L188.868 17.098C189.36 16.786 189.912 16.516 190.524 16.288C191.148 16.06 191.808 15.946 192.504 15.946C193.608 15.946 194.43 16.276 194.97 16.936C195.522 17.584 195.798 18.526 195.798 19.762V25H194.088L193.944 24.028H193.872C193.476 24.364 193.05 24.646 192.594 24.874C192.15 25.102 191.664 25.216 191.136 25.216ZM191.802 23.596C192.162 23.596 192.486 23.512 192.774 23.344C193.074 23.164 193.392 22.924 193.728 22.624V20.644C192.528 20.8 191.694 21.034 191.226 21.346C190.758 21.646 190.524 22.018 190.524 22.462C190.524 22.858 190.644 23.146 190.884 23.326C191.124 23.506 191.43 23.596 191.802 23.596ZM198.275 25V16.162H199.985L200.129 17.35H200.201C200.597 16.966 201.029 16.636 201.497 16.36C201.965 16.084 202.499 15.946 203.099 15.946C204.047 15.946 204.737 16.252 205.169 16.864C205.601 17.476 205.817 18.34 205.817 19.456V25H203.747V19.726C203.747 18.994 203.639 18.478 203.423 18.178C203.207 17.878 202.853 17.728 202.361 17.728C201.977 17.728 201.635 17.824 201.335 18.016C201.047 18.196 200.717 18.466 200.345 18.826V25H198.275ZM212.545 28.636C212.305 28.636 212.095 28.618 211.915 28.582C211.735 28.546 211.561 28.504 211.393 28.456L211.771 26.836C211.855 26.86 211.951 26.884 212.059 26.908C212.179 26.944 212.293 26.962 212.401 26.962C212.869 26.962 213.241 26.818 213.517 26.53C213.805 26.254 214.021 25.894 214.165 25.45L214.327 24.892L210.853 16.162H212.959L214.489 20.5C214.621 20.884 214.747 21.292 214.867 21.724C214.999 22.144 215.131 22.564 215.263 22.984H215.335C215.443 22.576 215.551 22.162 215.659 21.742C215.779 21.31 215.893 20.896 216.001 20.5L217.333 16.162H219.331L216.127 25.396C215.755 26.392 215.305 27.178 214.777 27.754C214.249 28.342 213.505 28.636 212.545 28.636ZM224.375 25.216C223.643 25.216 222.959 25.036 222.323 24.676C221.687 24.304 221.171 23.776 220.775 23.092C220.379 22.396 220.181 21.562 220.181 20.59C220.181 19.606 220.379 18.772 220.775 18.088C221.171 17.392 221.687 16.864 222.323 16.504C222.959 16.132 223.643 15.946 224.375 15.946C225.119 15.946 225.809 16.132 226.445 16.504C227.081 16.864 227.597 17.392 227.993 18.088C228.389 18.772 228.587 19.606 228.587 20.59C228.587 21.562 228.389 22.396 227.993 23.092C227.597 23.776 227.081 24.304 226.445 24.676C225.809 25.036 225.119 25.216 224.375 25.216ZM224.375 23.524C225.023 23.524 225.533 23.254 225.905 22.714C226.277 22.174 226.463 21.466 226.463 20.59C226.463 19.702 226.277 18.988 225.905 18.448C225.533 17.908 225.023 17.638 224.375 17.638C223.727 17.638 223.217 17.908 222.845 18.448C222.485 18.988 222.305 19.702 222.305 20.59C222.305 21.466 222.485 22.174 222.845 22.714C223.217 23.254 223.727 23.524 224.375 23.524ZM233.264 25.216C232.316 25.216 231.626 24.91 231.194 24.298C230.762 23.686 230.546 22.822 230.546 21.706V16.162H232.616V21.436C232.616 22.168 232.724 22.684 232.94 22.984C233.156 23.284 233.504 23.434 233.984 23.434C234.368 23.434 234.704 23.338 234.992 23.146C235.292 22.954 235.61 22.642 235.946 22.21V16.162H238.016V25H236.324L236.162 23.704H236.108C235.724 24.16 235.304 24.526 234.848 24.802C234.392 25.078 233.864 25.216 233.264 25.216ZM247.356 25.216C246.336 25.216 245.61 24.922 245.178 24.334C244.758 23.734 244.548 22.96 244.548 22.012V17.8H243.288V16.252L244.656 16.162L244.908 13.75H246.636V16.162H248.886V17.8H246.636V22.012C246.636 23.044 247.05 23.56 247.878 23.56C248.034 23.56 248.196 23.542 248.364 23.506C248.532 23.458 248.676 23.41 248.796 23.362L249.156 24.892C248.916 24.976 248.64 25.048 248.328 25.108C248.028 25.18 247.704 25.216 247.356 25.216ZM254.244 25.216C253.428 25.216 252.69 25.036 252.03 24.676C251.37 24.304 250.848 23.776 250.464 23.092C250.08 22.396 249.888 21.562 249.888 20.59C249.888 19.63 250.08 18.802 250.464 18.106C250.86 17.41 251.37 16.876 251.994 16.504C252.618 16.132 253.272 15.946 253.956 15.946C254.76 15.946 255.432 16.126 255.972 16.486C256.512 16.834 256.92 17.326 257.196 17.962C257.472 18.586 257.61 19.312 257.61 20.14C257.61 20.572 257.58 20.908 257.52 21.148H251.904C252 21.928 252.282 22.534 252.75 22.966C253.218 23.398 253.806 23.614 254.514 23.614C254.898 23.614 255.252 23.56 255.576 23.452C255.912 23.332 256.242 23.17 256.566 22.966L257.268 24.262C256.848 24.538 256.38 24.766 255.864 24.946C255.348 25.126 254.808 25.216 254.244 25.216ZM251.886 19.744H255.81C255.81 19.06 255.66 18.526 255.36 18.142C255.06 17.746 254.61 17.548 254.01 17.548C253.494 17.548 253.032 17.74 252.624 18.124C252.228 18.496 251.982 19.036 251.886 19.744ZM261.603 25.216C260.871 25.216 260.349 24.994 260.037 24.55C259.737 24.106 259.587 23.5 259.587 22.732V12.292H261.657V22.84C261.657 23.092 261.705 23.272 261.801 23.38C261.897 23.476 261.999 23.524 262.107 23.524C262.155 23.524 262.197 23.524 262.233 23.524C262.281 23.512 262.347 23.5 262.431 23.488L262.701 25.036C262.581 25.084 262.425 25.126 262.233 25.162C262.053 25.198 261.843 25.216 261.603 25.216ZM266.49 25.216C265.758 25.216 265.236 24.994 264.924 24.55C264.624 24.106 264.474 23.5 264.474 22.732V12.292H266.544V22.84C266.544 23.092 266.592 23.272 266.688 23.38C266.784 23.476 266.886 23.524 266.994 23.524C267.042 23.524 267.084 23.524 267.12 23.524C267.168 23.512 267.234 23.5 267.318 23.488L267.588 25.036C267.468 25.084 267.312 25.126 267.12 25.162C266.94 25.198 266.73 25.216 266.49 25.216ZM272.964 25V16.162H274.674L274.818 17.368H274.89C275.262 16.972 275.664 16.636 276.096 16.36C276.54 16.084 277.038 15.946 277.59 15.946C278.238 15.946 278.754 16.09 279.138 16.378C279.534 16.654 279.834 17.038 280.038 17.53C280.458 17.074 280.896 16.696 281.352 16.396C281.82 16.096 282.33 15.946 282.882 15.946C283.818 15.946 284.508 16.252 284.952 16.864C285.396 17.476 285.618 18.34 285.618 19.456V25H283.53V19.726C283.53 18.994 283.416 18.478 283.188 18.178C282.972 17.878 282.636 17.728 282.18 17.728C281.628 17.728 281.01 18.094 280.326 18.826V25H278.256V19.726C278.256 18.994 278.142 18.478 277.914 18.178C277.698 17.878 277.356 17.728 276.888 17.728C276.336 17.728 275.718 18.094 275.034 18.826V25H272.964ZM291.914 25.216C291.098 25.216 290.36 25.036 289.7 24.676C289.04 24.304 288.518 23.776 288.134 23.092C287.75 22.396 287.558 21.562 287.558 20.59C287.558 19.63 287.75 18.802 288.134 18.106C288.53 17.41 289.04 16.876 289.664 16.504C290.288 16.132 290.942 15.946 291.626 15.946C292.43 15.946 293.102 16.126 293.642 16.486C294.182 16.834 294.59 17.326 294.866 17.962C295.142 18.586 295.28 19.312 295.28 20.14C295.28 20.572 295.25 20.908 295.19 21.148H289.574C289.67 21.928 289.952 22.534 290.42 22.966C290.888 23.398 291.476 23.614 292.184 23.614C292.568 23.614 292.922 23.56 293.246 23.452C293.582 23.332 293.912 23.17 294.236 22.966L294.938 24.262C294.518 24.538 294.05 24.766 293.534 24.946C293.018 25.126 292.478 25.216 291.914 25.216ZM289.556 19.744H293.48C293.48 19.06 293.33 18.526 293.03 18.142C292.73 17.746 292.28 17.548 291.68 17.548C291.164 17.548 290.702 17.74 290.294 18.124C289.898 18.496 289.652 19.036 289.556 19.744ZM303.003 25.216C302.235 25.216 301.605 24.976 301.113 24.496C300.633 24.016 300.393 23.392 300.393 22.624C300.393 21.676 300.807 20.944 301.635 20.428C302.463 19.9 303.783 19.54 305.595 19.348C305.583 18.88 305.457 18.478 305.217 18.142C304.989 17.794 304.575 17.62 303.975 17.62C303.543 17.62 303.117 17.704 302.697 17.872C302.289 18.04 301.887 18.244 301.491 18.484L300.735 17.098C301.227 16.786 301.779 16.516 302.391 16.288C303.015 16.06 303.675 15.946 304.371 15.946C305.475 15.946 306.297 16.276 306.837 16.936C307.389 17.584 307.665 18.526 307.665 19.762V25H305.955L305.811 24.028H305.739C305.343 24.364 304.917 24.646 304.461 24.874C304.017 25.102 303.531 25.216 303.003 25.216ZM303.669 23.596C304.029 23.596 304.353 23.512 304.641 23.344C304.941 23.164 305.259 22.924 305.595 22.624V20.644C304.395 20.8 303.561 21.034 303.093 21.346C302.625 21.646 302.391 22.018 302.391 22.462C302.391 22.858 302.511 23.146 302.751 23.326C302.991 23.506 303.297 23.596 303.669 23.596ZM314.426 25.216C313.586 25.216 312.782 24.832 312.014 24.064H311.96L311.78 25H310.142V12.292H312.212V15.568L312.158 17.044C312.53 16.72 312.938 16.456 313.382 16.252C313.826 16.048 314.27 15.946 314.714 15.946C315.818 15.946 316.676 16.354 317.288 17.17C317.9 17.986 318.206 19.072 318.206 20.428C318.206 21.436 318.026 22.3 317.666 23.02C317.306 23.728 316.838 24.274 316.262 24.658C315.698 25.03 315.086 25.216 314.426 25.216ZM313.994 23.506C314.582 23.506 315.074 23.248 315.47 22.732C315.866 22.216 316.064 21.46 316.064 20.464C316.064 19.576 315.914 18.886 315.614 18.394C315.314 17.902 314.828 17.656 314.156 17.656C313.532 17.656 312.884 17.986 312.212 18.646V22.768C312.524 23.032 312.83 23.224 313.13 23.344C313.442 23.452 313.73 23.506 313.994 23.506ZM323.903 25.216C323.171 25.216 322.487 25.036 321.851 24.676C321.215 24.304 320.699 23.776 320.303 23.092C319.907 22.396 319.709 21.562 319.709 20.59C319.709 19.606 319.907 18.772 320.303 18.088C320.699 17.392 321.215 16.864 321.851 16.504C322.487 16.132 323.171 15.946 323.903 15.946C324.647 15.946 325.337 16.132 325.973 16.504C326.609 16.864 327.125 17.392 327.521 18.088C327.917 18.772 328.115 19.606 328.115 20.59C328.115 21.562 327.917 22.396 327.521 23.092C327.125 23.776 326.609 24.304 325.973 24.676C325.337 25.036 324.647 25.216 323.903 25.216ZM323.903 23.524C324.551 23.524 325.061 23.254 325.433 22.714C325.805 22.174 325.991 21.466 325.991 20.59C325.991 19.702 325.805 18.988 325.433 18.448C325.061 17.908 324.551 17.638 323.903 17.638C323.255 17.638 322.745 17.908 322.373 18.448C322.013 18.988 321.833 19.702 321.833 20.59C321.833 21.466 322.013 22.174 322.373 22.714C322.745 23.254 323.255 23.524 323.903 23.524ZM332.792 25.216C331.844 25.216 331.154 24.91 330.722 24.298C330.29 23.686 330.074 22.822 330.074 21.706V16.162H332.144V21.436C332.144 22.168 332.252 22.684 332.468 22.984C332.684 23.284 333.032 23.434 333.512 23.434C333.896 23.434 334.232 23.338 334.52 23.146C334.82 22.954 335.138 22.642 335.474 22.21V16.162H337.544V25H335.852L335.69 23.704H335.636C335.252 24.16 334.832 24.526 334.376 24.802C333.92 25.078 333.392 25.216 332.792 25.216ZM343.28 25.216C342.26 25.216 341.534 24.922 341.102 24.334C340.682 23.734 340.472 22.96 340.472 22.012V17.8H339.212V16.252L340.58 16.162L340.832 13.75H342.56V16.162H344.81V17.8H342.56V22.012C342.56 23.044 342.974 23.56 343.802 23.56C343.958 23.56 344.12 23.542 344.288 23.506C344.456 23.458 344.6 23.41 344.72 23.362L345.08 24.892C344.84 24.976 344.564 25.048 344.252 25.108C343.952 25.18 343.628 25.216 343.28 25.216ZM191.112 49V41.8H189.924V40.252L191.112 40.162V39.244C191.112 38.32 191.34 37.564 191.796 36.976C192.252 36.376 193.002 36.076 194.046 36.076C194.358 36.076 194.658 36.106 194.946 36.166C195.234 36.226 195.474 36.298 195.666 36.382L195.27 37.93C194.946 37.786 194.622 37.714 194.298 37.714C193.554 37.714 193.182 38.212 193.182 39.208V40.162H194.91V41.8H193.182V49H191.112ZM199.092 49.216C198.144 49.216 197.454 48.91 197.022 48.298C196.59 47.686 196.374 46.822 196.374 45.706V40.162H198.444V45.436C198.444 46.168 198.552 46.684 198.768 46.984C198.984 47.284 199.332 47.434 199.812 47.434C200.196 47.434 200.532 47.338 200.82 47.146C201.12 46.954 201.438 46.642 201.774 46.21V40.162H203.844V49H202.152L201.99 47.704H201.936C201.552 48.16 201.132 48.526 200.676 48.802C200.22 49.078 199.692 49.216 199.092 49.216ZM206.466 49V40.162H208.176L208.32 41.35H208.392C208.788 40.966 209.22 40.636 209.688 40.36C210.156 40.084 210.69 39.946 211.29 39.946C212.238 39.946 212.928 40.252 213.36 40.864C213.792 41.476 214.008 42.34 214.008 43.456V49H211.938V43.726C211.938 42.994 211.83 42.478 211.614 42.178C211.398 41.878 211.044 41.728 210.552 41.728C210.168 41.728 209.826 41.824 209.526 42.016C209.238 42.196 208.908 42.466 208.536 42.826V49H206.466ZM220.229 49.216C219.425 49.216 218.699 49.036 218.051 48.676C217.415 48.304 216.905 47.776 216.521 47.092C216.149 46.396 215.963 45.562 215.963 44.59C215.963 43.606 216.167 42.772 216.575 42.088C216.983 41.392 217.523 40.864 218.195 40.504C218.879 40.132 219.611 39.946 220.391 39.946C220.955 39.946 221.447 40.042 221.867 40.234C222.287 40.426 222.659 40.66 222.983 40.936L221.975 42.286C221.747 42.082 221.513 41.926 221.273 41.818C221.033 41.698 220.775 41.638 220.499 41.638C219.791 41.638 219.209 41.908 218.753 42.448C218.309 42.988 218.087 43.702 218.087 44.59C218.087 45.466 218.303 46.174 218.735 46.714C219.179 47.254 219.749 47.524 220.445 47.524C220.793 47.524 221.117 47.452 221.417 47.308C221.729 47.152 222.011 46.972 222.263 46.768L223.109 48.136C222.701 48.496 222.245 48.766 221.741 48.946C221.237 49.126 220.733 49.216 220.229 49.216ZM227.791 49.216C226.771 49.216 226.045 48.922 225.613 48.334C225.193 47.734 224.983 46.96 224.983 46.012V41.8H223.723V40.252L225.091 40.162L225.343 37.75H227.071V40.162H229.321V41.8H227.071V46.012C227.071 47.044 227.485 47.56 228.313 47.56C228.469 47.56 228.631 47.542 228.799 47.506C228.967 47.458 229.111 47.41 229.231 47.362L229.591 48.892C229.351 48.976 229.075 49.048 228.763 49.108C228.463 49.18 228.139 49.216 227.791 49.216ZM231.181 49V40.162H233.251V49H231.181ZM232.225 38.614C231.853 38.614 231.553 38.506 231.325 38.29C231.097 38.074 230.983 37.786 230.983 37.426C230.983 37.078 231.097 36.796 231.325 36.58C231.553 36.364 231.853 36.256 232.225 36.256C232.597 36.256 232.897 36.364 233.125 36.58C233.353 36.796 233.467 37.078 233.467 37.426C233.467 37.786 233.353 38.074 233.125 38.29C232.897 38.506 232.597 38.614 232.225 38.614ZM239.51 49.216C238.778 49.216 238.094 49.036 237.458 48.676C236.822 48.304 236.306 47.776 235.91 47.092C235.514 46.396 235.316 45.562 235.316 44.59C235.316 43.606 235.514 42.772 235.91 42.088C236.306 41.392 236.822 40.864 237.458 40.504C238.094 40.132 238.778 39.946 239.51 39.946C240.254 39.946 240.944 40.132 241.58 40.504C242.216 40.864 242.732 41.392 243.128 42.088C243.524 42.772 243.722 43.606 243.722 44.59C243.722 45.562 243.524 46.396 243.128 47.092C242.732 47.776 242.216 48.304 241.58 48.676C240.944 49.036 240.254 49.216 239.51 49.216ZM239.51 47.524C240.158 47.524 240.668 47.254 241.04 46.714C241.412 46.174 241.598 45.466 241.598 44.59C241.598 43.702 241.412 42.988 241.04 42.448C240.668 41.908 240.158 41.638 239.51 41.638C238.862 41.638 238.352 41.908 237.98 42.448C237.62 42.988 237.44 43.702 237.44 44.59C237.44 45.466 237.62 46.174 237.98 46.714C238.352 47.254 238.862 47.524 239.51 47.524ZM245.771 49V40.162H247.481L247.625 41.35H247.697C248.093 40.966 248.525 40.636 248.993 40.36C249.461 40.084 249.995 39.946 250.595 39.946C251.543 39.946 252.233 40.252 252.665 40.864C253.097 41.476 253.313 42.34 253.313 43.456V49H251.243V43.726C251.243 42.994 251.135 42.478 250.919 42.178C250.703 41.878 250.349 41.728 249.857 41.728C249.473 41.728 249.131 41.824 248.831 42.016C248.543 42.196 248.213 42.466 247.841 42.826V49H245.771Z" fill="#232A3D"/>
<path d="M137.314 52.492V40.162H139.024L139.168 41.098H139.24C139.612 40.786 140.026 40.516 140.482 40.288C140.95 40.06 141.424 39.946 141.904 39.946C143.008 39.946 143.86 40.354 144.46 41.17C145.072 41.986 145.378 43.078 145.378 44.446C145.378 45.454 145.198 46.318 144.838 47.038C144.478 47.746 144.01 48.286 143.434 48.658C142.87 49.03 142.258 49.216 141.598 49.216C141.214 49.216 140.83 49.132 140.446 48.964C140.062 48.784 139.69 48.544 139.33 48.244L139.384 49.72V52.492H137.314ZM141.166 47.506C141.754 47.506 142.246 47.248 142.642 46.732C143.038 46.216 143.236 45.46 143.236 44.464C143.236 43.576 143.086 42.886 142.786 42.394C142.486 41.902 142 41.656 141.328 41.656C140.704 41.656 140.056 41.986 139.384 42.646V46.768C139.708 47.032 140.02 47.224 140.32 47.344C140.62 47.452 140.902 47.506 141.166 47.506ZM147.474 49V40.162H149.184L149.328 41.728H149.4C149.712 41.152 150.09 40.714 150.534 40.414C150.978 40.102 151.434 39.946 151.902 39.946C152.322 39.946 152.658 40.006 152.91 40.126L152.55 41.926C152.394 41.878 152.25 41.842 152.118 41.818C151.986 41.794 151.824 41.782 151.632 41.782C151.284 41.782 150.918 41.92 150.534 42.196C150.15 42.46 149.82 42.928 149.544 43.6V49H147.474ZM154.189 49V40.162H156.259V49H154.189ZM155.233 38.614C154.861 38.614 154.561 38.506 154.333 38.29C154.105 38.074 153.991 37.786 153.991 37.426C153.991 37.078 154.105 36.796 154.333 36.58C154.561 36.364 154.861 36.256 155.233 36.256C155.605 36.256 155.905 36.364 156.133 36.58C156.361 36.796 156.475 37.078 156.475 37.426C156.475 37.786 156.361 38.074 156.133 38.29C155.905 38.506 155.605 38.614 155.233 38.614ZM158.9 49V40.162H160.61L160.754 41.35H160.826C161.222 40.966 161.654 40.636 162.122 40.36C162.59 40.084 163.124 39.946 163.724 39.946C164.672 39.946 165.362 40.252 165.794 40.864C166.226 41.476 166.442 42.34 166.442 43.456V49H164.372V43.726C164.372 42.994 164.264 42.478 164.048 42.178C163.832 41.878 163.478 41.728 162.986 41.728C162.602 41.728 162.26 41.824 161.96 42.016C161.672 42.196 161.342 42.466 160.97 42.826V49H158.9ZM172.086 49.216C171.066 49.216 170.34 48.922 169.908 48.334C169.488 47.734 169.278 46.96 169.278 46.012V41.8H168.018V40.252L169.386 40.162L169.638 37.75H171.366V40.162H173.616V41.8H171.366V46.012C171.366 47.044 171.78 47.56 172.608 47.56C172.764 47.56 172.926 47.542 173.094 47.506C173.262 47.458 173.406 47.41 173.526 47.362L173.886 48.892C173.646 48.976 173.37 49.048 173.058 49.108C172.758 49.18 172.434 49.216 172.086 49.216ZM177.924 52.204C177.18 50.98 176.598 49.702 176.178 48.37C175.758 47.038 175.548 45.58 175.548 43.996C175.548 42.412 175.758 40.954 176.178 39.622C176.598 38.29 177.18 37.012 177.924 35.788L179.22 36.364C178.548 37.516 178.05 38.746 177.726 40.054C177.402 41.362 177.24 42.676 177.24 43.996C177.24 45.316 177.402 46.63 177.726 47.938C178.05 49.246 178.548 50.476 179.22 51.628L177.924 52.204ZM182.068 52.204L180.772 51.628C181.444 50.476 181.942 49.246 182.266 47.938C182.59 46.63 182.752 45.316 182.752 43.996C182.752 42.676 182.59 41.362 182.266 40.054C181.942 38.746 181.444 37.516 180.772 36.364L182.068 35.788C182.812 37.012 183.394 38.29 183.814 39.622C184.234 40.954 184.444 42.412 184.444 43.996C184.444 45.58 184.234 47.038 183.814 48.37C183.394 49.702 182.812 50.98 182.068 52.204Z" fill="#FF2D55"/>
</svg>
